G04 DipTrace 3.3.0.0*
G04 esp02.GTP*
%MOIN*%
G04 #@! TF.FileFunction,Paste,Top*
G04 #@! TF.Part,Single*
%ADD33R,0.025591X0.041339*%
%ADD66R,0.007748X0.062866*%
%ADD70R,0.07074X0.015622*%
%ADD72R,0.025465X0.019559*%
%ADD74R,0.041213X0.027433*%
%ADD76R,0.019559X0.025465*%
%ADD84R,0.015622X0.059717*%
%ADD86R,0.019559X0.03137*%
%ADD90R,0.013654X0.039244*%
%ADD92R,0.047118X0.03137*%
%ADD94R,0.047118X0.047118*%
%ADD96R,0.047118X0.094362*%
%ADD98R,0.03137X0.035307*%
%ADD100R,0.114047X0.056961*%
%ADD102R,0.094362X0.047118*%
%ADD104R,0.054992X0.062866*%
%ADD106R,0.035307X0.03137*%
%FSLAX26Y26*%
G04*
G70*
G90*
G75*
G01*
G04 TopPaste*
%LPD*%
D106*
X560732Y4139965D3*
X627661D3*
D104*
X1689831Y3591550D3*
X1579594D3*
X1687476Y3476049D3*
X1577240D3*
D106*
X1717685Y3020785D3*
X1784614D3*
D102*
X1828652Y2755556D3*
X1667235D3*
D106*
X1716883Y2429159D3*
X1783812D3*
X595301Y2354959D3*
X662230D3*
X1720887Y2352782D3*
X1787816D3*
D100*
X633818Y2088663D3*
X803109D3*
D106*
X1020083Y2173924D3*
X953154D3*
X1491560Y1902903D3*
X1558490D3*
X1690551Y1902100D3*
X1623622D3*
D98*
X1314327Y1843707D3*
Y1776778D3*
D106*
X1921465Y1652465D3*
X1854535D3*
X454535Y1646215D3*
X521465D3*
X1015214Y1639965D3*
X948285D3*
X1371071Y1633024D3*
X1438000D3*
X1263000Y1494000D3*
X1196071D3*
X1523285Y1402465D3*
X1590214D3*
X681749Y1400251D3*
X748678D3*
X742035Y1314965D3*
X808965D3*
X1625500Y1312751D3*
X1692429D3*
X1425500Y1131500D3*
X1358571D3*
X1851677Y1124482D3*
X1918606D3*
X1021465Y1058715D3*
X954535D3*
D96*
X1187458Y1018459D3*
Y857042D3*
D106*
X521465Y1046215D3*
X454535D3*
X679535Y971215D3*
X746465D3*
X1523285D3*
X1590214D3*
X1625500Y794000D3*
X1692429D3*
X754535Y789965D3*
X821465D3*
X1919249Y694000D3*
X1852320D3*
D96*
X1187458Y662209D3*
Y500791D3*
D106*
X1431749Y687751D3*
X1364820D3*
X521465Y677465D3*
X454535D3*
X1019249Y612751D3*
X952320D3*
X684333Y450251D3*
X751262D3*
X1552714Y446215D3*
X1485785D3*
D94*
X1893062Y3588533D3*
Y3738139D3*
X1551726Y3709327D3*
X1701332D3*
D92*
X1277613Y2741214D3*
X1190999Y2703812D3*
Y2778615D3*
X1056651Y2679075D3*
X970037Y2641673D3*
Y2716476D3*
X1279022Y2498373D3*
X1192408Y2460971D3*
Y2535774D3*
D94*
X757274Y2434173D3*
X906881D3*
D90*
X1625396Y2350740D3*
X1587995D3*
X1550593D3*
Y2248378D3*
X1625396D3*
D33*
X1531469Y1996274D3*
X1606272D3*
X1568870Y2086825D3*
D86*
X1726900Y2080845D3*
X1764302Y1994231D3*
X1689499D3*
D84*
X1256749Y1787749D3*
X1206749D3*
X1156751D3*
X1106751D3*
Y1587749D3*
X1156751D3*
X1206749D3*
X1256749D3*
Y1396648D3*
X1206749D3*
X1156751D3*
X1106751D3*
Y1196648D3*
X1156751D3*
X1206749D3*
X1256749D3*
D76*
X1795259Y3657972D3*
Y3720965D3*
X1903244Y3457121D3*
Y3520113D3*
D74*
X1797623Y3585713D3*
Y3510909D3*
D72*
X1714130Y2518774D3*
X1777122D3*
D92*
X876689Y4064703D3*
X963303Y4102105D3*
Y4027302D3*
X772387Y3928322D3*
X859001Y3965723D3*
Y3890920D3*
X892967Y3816552D3*
X979581Y3853954D3*
Y3779151D3*
X775217Y3703295D3*
X861831Y3740697D3*
Y3665894D3*
D106*
X1097786Y4116526D3*
X1164715D3*
Y4031912D3*
X1097786D3*
X1314476Y3998510D3*
X1247547D3*
X1097786Y3947299D3*
X1164715D3*
Y3862685D3*
X1097786D3*
X1310663Y3862781D3*
X1243734D3*
X1097786Y3778071D3*
X1164715D3*
X629034Y3754189D3*
X695963D3*
X1244815Y3730909D3*
X1311744D3*
X1164715Y3693457D3*
X1097786D3*
X1243992Y3648161D3*
X1310921D3*
X1097786Y3608844D3*
X1164715D3*
X628606Y3580411D3*
X695535D3*
X1164715Y3524230D3*
X1097786D3*
X1189577Y2871731D3*
X1256507D3*
X1035396Y2814912D3*
X968467D3*
X1254109Y2621490D3*
X1187180D3*
D104*
X716421Y2569925D3*
X826657D3*
X716383Y2692058D3*
X826619D3*
D106*
X1414581Y2112072D3*
X1481510D3*
X1847944Y2128488D3*
X1781014D3*
X676556Y1781500D3*
X743486D3*
X890979D3*
X824050D3*
X1475500D3*
X1542429D3*
X1700500D3*
X1633571D3*
X1854535Y1564965D3*
X1921465D3*
X948285Y1558715D3*
X1015214D3*
X1442429Y1556500D3*
X1375500D3*
X521465Y1552465D3*
X454535D3*
X1017429Y1475251D3*
X950500D3*
X1919249D3*
X1852320D3*
X1379535Y1471215D3*
X1446465D3*
X456749Y1469000D3*
X523678D3*
X1550500Y1306500D3*
X1483571D3*
X521465Y1221215D3*
X454535D3*
X1021465Y1214965D3*
X954535D3*
X1358571Y1212751D3*
X1425500D3*
X1852320D3*
X1919249D3*
X1021465Y1139965D3*
X954535D3*
X523678Y1137751D3*
X456749D3*
X1425500Y1056500D3*
X1358571D3*
X1849751Y1040448D3*
X1916680D3*
X452320Y919000D3*
X519249D3*
X908965Y914965D3*
X842035D3*
X1919249Y906500D3*
X1852320D3*
X454535Y833715D3*
X521465D3*
X1483571Y794000D3*
X1550500D3*
X1019249Y694000D3*
X952320D3*
X1921465Y614965D3*
X1854535D3*
X1363000Y612751D3*
X1429929D3*
X521465Y602465D3*
X454535D3*
X1915214Y539965D3*
X1848285D3*
X1361550Y533715D3*
X1428479D3*
X1019249Y531500D3*
X952320D3*
X533965Y521215D3*
X467035D3*
X896833Y450251D3*
X829904D3*
X1690214Y446215D3*
X1623285D3*
D66*
X1099106Y1999231D3*
X1124697D3*
X1150287D3*
X1175878D3*
X1201469D3*
X1227059D3*
X1252650Y1999239D3*
Y2227577D3*
X1227059D3*
X1201469D3*
X1175878D3*
X1150287D3*
X1124697D3*
X1099106D3*
D70*
X1756799Y1494050D3*
Y1544050D3*
Y1594050D3*
Y1644050D3*
X1544201D3*
Y1594050D3*
Y1544050D3*
Y1494050D3*
X838049Y1487799D3*
Y1537799D3*
Y1587799D3*
Y1637799D3*
X625450D3*
Y1587799D3*
Y1537799D3*
Y1487799D3*
X838049Y1069050D3*
Y1119050D3*
Y1169050D3*
Y1219050D3*
X625450D3*
Y1169050D3*
Y1119050D3*
Y1069050D3*
X1744299Y1062799D3*
Y1112799D3*
Y1162799D3*
Y1212799D3*
X1531701D3*
Y1162799D3*
Y1112799D3*
Y1062799D3*
X1756749Y544000D3*
Y594000D3*
Y644000D3*
Y694000D3*
X1544151D3*
Y644000D3*
Y594000D3*
Y544000D3*
X838000Y537749D3*
Y587749D3*
Y637749D3*
Y687749D3*
X625402D3*
Y637749D3*
Y587749D3*
Y537749D3*
D98*
X1945518Y3927717D3*
Y3860787D3*
M02*
