G04 DipTrace 3.3.0.0*
G04 esp02.GTS*
%MOIN*%
G04 #@! TF.FileFunction,Soldermask,Top*
G04 #@! TF.Part,Single*
%AMOUTLINE1*
4,1,8,
-0.017397,0.042,
-0.042,0.017397,
-0.042,-0.017397,
-0.017397,-0.042,
0.017397,-0.042,
0.042,-0.017397,
0.042,0.017397,
0.017397,0.042,
-0.017397,0.042,
0*%
%AMOUTLINE4*
4,1,8,
0.015816,0.038184,
0.038184,0.015816,
0.038184,-0.015816,
0.015816,-0.038184,
-0.015816,-0.038184,
-0.038184,-0.015816,
-0.038184,0.015816,
-0.015816,0.038184,
0.015816,0.038184,
0*%
%AMOUTLINE7*
4,1,8,
0.036657,-0.034,
-0.016157,-0.034,
-0.034,-0.016157,
-0.034,0.016157,
-0.016157,0.034,
0.036657,0.034,
0.049,0.021657,
0.049,-0.021657,
0.036657,-0.034,
0*%
%AMOUTLINE10*
4,1,8,
-0.036657,0.034,
0.016157,0.034,
0.034,0.016157,
0.034,-0.016157,
0.016157,-0.034,
-0.036657,-0.034,
-0.049,-0.021657,
-0.049,0.021657,
-0.036657,0.034,
0*%
%AMOUTLINE13*
4,1,8,
0.079118,-0.032772,
0.032772,-0.079118,
-0.032772,-0.079118,
-0.079118,-0.032772,
-0.079118,0.032772,
-0.032772,0.079118,
0.032772,0.079118,
0.079118,0.032772,
0.079118,-0.032772,
0*%
%ADD33R,0.025591X0.041339*%
%ADD61O,0.068X0.098*%
%ADD63R,0.068X0.098*%
%ADD65R,0.023748X0.078866*%
%ADD67R,0.06737X0.06737*%
%ADD69R,0.08674X0.031622*%
%ADD71R,0.041465X0.035559*%
%ADD73R,0.057213X0.043433*%
%ADD75R,0.035559X0.041465*%
%ADD77O,0.093X0.083*%
%ADD79C,0.073*%
%ADD81O,0.083X0.093*%
%ADD83R,0.031622X0.075717*%
%ADD85R,0.035559X0.04737*%
%ADD89R,0.029654X0.055244*%
%ADD91R,0.063118X0.04737*%
%ADD93R,0.063118X0.063118*%
%ADD95R,0.063118X0.110362*%
%ADD97R,0.04737X0.051307*%
%ADD99R,0.130047X0.072961*%
%ADD101R,0.110362X0.063118*%
%ADD103R,0.070992X0.078866*%
%ADD105R,0.051307X0.04737*%
%ADD112OUTLINE1*%
%ADD115OUTLINE4*%
%ADD118OUTLINE7*%
%ADD121OUTLINE10*%
%ADD124OUTLINE13*%
%ADD108C,0.010807*%
%FSLAX26Y26*%
G04*
G70*
G90*
G75*
G01*
G04 TopMask*
%LPD*%
D105*
X560732Y4139965D3*
X627661D3*
D103*
X1689831Y3591550D3*
X1579594D3*
X1687476Y3476049D3*
X1577240D3*
D105*
X1717685Y3020785D3*
X1784614D3*
D101*
X1828652Y2755556D3*
X1667235D3*
D105*
X1716883Y2429159D3*
X1783812D3*
X595301Y2354959D3*
X662230D3*
X1720887Y2352782D3*
X1787816D3*
D99*
X633818Y2088663D3*
X803109D3*
D105*
X1020083Y2173924D3*
X953154D3*
X1491560Y1902903D3*
X1558490D3*
X1690551Y1902100D3*
X1623622D3*
D97*
X1314327Y1843707D3*
Y1776778D3*
D105*
X1921465Y1652465D3*
X1854535D3*
X454535Y1646215D3*
X521465D3*
X1015214Y1639965D3*
X948285D3*
X1371071Y1633024D3*
X1438000D3*
X1263000Y1494000D3*
X1196071D3*
X1523285Y1402465D3*
X1590214D3*
X681749Y1400251D3*
X748678D3*
X742035Y1314965D3*
X808965D3*
X1625500Y1312751D3*
X1692429D3*
X1425500Y1131500D3*
X1358571D3*
X1851677Y1124482D3*
X1918606D3*
X1021465Y1058715D3*
X954535D3*
D95*
X1187458Y1018459D3*
Y857042D3*
D105*
X521465Y1046215D3*
X454535D3*
X679535Y971215D3*
X746465D3*
X1523285D3*
X1590214D3*
X1625500Y794000D3*
X1692429D3*
X754535Y789965D3*
X821465D3*
X1919249Y694000D3*
X1852320D3*
D95*
X1187458Y662209D3*
Y500791D3*
D105*
X1431749Y687751D3*
X1364820D3*
X521465Y677465D3*
X454535D3*
X1019249Y612751D3*
X952320D3*
X684333Y450251D3*
X751262D3*
X1552714Y446215D3*
X1485785D3*
D93*
X1893062Y3588533D3*
Y3738139D3*
X1551726Y3709327D3*
X1701332D3*
D91*
X1277613Y2741214D3*
X1190999Y2703812D3*
Y2778615D3*
X1056651Y2679075D3*
X970037Y2641673D3*
Y2716476D3*
X1279022Y2498373D3*
X1192408Y2460971D3*
Y2535774D3*
D93*
X757274Y2434173D3*
X906881D3*
D112*
X1638000Y3155722D3*
X1738000D3*
X1838000D3*
D89*
X1625396Y2350740D3*
X1587995D3*
X1550593D3*
Y2248378D3*
X1625396D3*
D33*
X1531469Y1996274D3*
X1606272D3*
X1568870Y2086825D3*
D85*
X1726900Y2080845D3*
X1764302Y1994231D3*
X1689499D3*
D83*
X1256749Y1787749D3*
X1206749D3*
X1156751D3*
X1106751D3*
Y1587749D3*
X1156751D3*
X1206749D3*
X1256749D3*
Y1396648D3*
X1206749D3*
X1156751D3*
X1106751D3*
Y1196648D3*
X1156751D3*
X1206749D3*
X1256749D3*
D81*
X1603699Y2898836D3*
X1928699D3*
D79*
X1503699D3*
D81*
X1603699Y2496100D3*
X1928699D3*
D79*
X1503699D3*
D77*
X1788000Y1925751D3*
Y2250751D3*
D79*
Y1825751D3*
D77*
X1388000Y1925751D3*
Y2250751D3*
D79*
Y1825751D3*
D77*
X988000Y1925751D3*
Y2250751D3*
D79*
Y1825751D3*
D77*
X588000Y1925751D3*
Y2250751D3*
D79*
Y1825751D3*
D77*
X1788000Y1724751D3*
Y1399751D3*
D79*
Y1824751D3*
D77*
X1388000Y1724751D3*
Y1399751D3*
D79*
Y1824751D3*
D77*
X988000Y1724751D3*
Y1399751D3*
D79*
Y1824751D3*
D77*
X588000Y1724751D3*
Y1399751D3*
D79*
Y1824751D3*
D77*
X1788000Y975751D3*
Y1300751D3*
D79*
Y875751D3*
D77*
X1388000Y975751D3*
Y1300751D3*
D79*
Y875751D3*
D77*
X988000Y975751D3*
Y1300751D3*
D79*
Y875751D3*
D77*
X588000Y975751D3*
Y1300751D3*
D79*
Y875751D3*
D77*
X1788000Y774751D3*
Y449751D3*
D79*
Y874751D3*
D77*
X1388000Y774751D3*
Y449751D3*
D79*
Y874751D3*
D77*
X988000Y774751D3*
Y449751D3*
D79*
Y874751D3*
D77*
X588000Y774751D3*
Y449751D3*
D79*
Y874751D3*
D115*
X1731816Y3861273D3*
X1631816D3*
X1731816Y3961273D3*
X1631816D3*
X1731816Y4061273D3*
X1631816D3*
X1731816Y4161273D3*
X1631816D3*
X1731816Y4261273D3*
X1631816D3*
D75*
X1795259Y3657972D3*
Y3720965D3*
X1903244Y3457121D3*
Y3520113D3*
D73*
X1797623Y3585713D3*
Y3510909D3*
D71*
X1714130Y2518774D3*
X1777122D3*
D118*
X443870Y4144007D3*
X443864Y4044000D3*
Y3944000D3*
Y3844000D3*
Y3744000D3*
Y3644000D3*
Y3544000D3*
Y3444000D3*
Y3344000D3*
Y3244000D3*
Y3144000D3*
Y3044000D3*
Y2944000D3*
Y2844000D3*
Y2744000D3*
Y2644000D3*
Y2544000D3*
Y2444000D3*
Y2344000D3*
D121*
X1435596D3*
Y2444000D3*
Y2544000D3*
Y2644000D3*
Y2744000D3*
Y2844000D3*
Y2944000D3*
Y3044000D3*
Y3144000D3*
Y3244000D3*
Y3344000D3*
Y3444000D3*
Y3544000D3*
Y3644000D3*
Y3744000D3*
Y3844000D3*
X1435570Y3944007D3*
X1435596Y4044000D3*
Y4144000D3*
D91*
X876689Y4064703D3*
X963303Y4102105D3*
Y4027302D3*
X772387Y3928322D3*
X859001Y3965723D3*
Y3890920D3*
X892967Y3816552D3*
X979581Y3853954D3*
Y3779151D3*
X775217Y3703295D3*
X861831Y3740697D3*
Y3665894D3*
D105*
X1097786Y4116526D3*
X1164715D3*
Y4031912D3*
X1097786D3*
X1314476Y3998510D3*
X1247547D3*
X1097786Y3947299D3*
X1164715D3*
Y3862685D3*
X1097786D3*
X1310663Y3862781D3*
X1243734D3*
X1097786Y3778071D3*
X1164715D3*
X629034Y3754189D3*
X695963D3*
X1244815Y3730909D3*
X1311744D3*
X1164715Y3693457D3*
X1097786D3*
X1243992Y3648161D3*
X1310921D3*
X1097786Y3608844D3*
X1164715D3*
X628606Y3580411D3*
X695535D3*
X1164715Y3524230D3*
X1097786D3*
X1189577Y2871731D3*
X1256507D3*
X1035396Y2814912D3*
X968467D3*
X1254109Y2621490D3*
X1187180D3*
D103*
X716421Y2569925D3*
X826657D3*
X716383Y2692058D3*
X826619D3*
D105*
X1414581Y2112072D3*
X1481510D3*
X1847944Y2128488D3*
X1781014D3*
X676556Y1781500D3*
X743486D3*
X890979D3*
X824050D3*
X1475500D3*
X1542429D3*
X1700500D3*
X1633571D3*
X1854535Y1564965D3*
X1921465D3*
X948285Y1558715D3*
X1015214D3*
X1442429Y1556500D3*
X1375500D3*
X521465Y1552465D3*
X454535D3*
X1017429Y1475251D3*
X950500D3*
X1919249D3*
X1852320D3*
X1379535Y1471215D3*
X1446465D3*
X456749Y1469000D3*
X523678D3*
X1550500Y1306500D3*
X1483571D3*
X521465Y1221215D3*
X454535D3*
X1021465Y1214965D3*
X954535D3*
X1358571Y1212751D3*
X1425500D3*
X1852320D3*
X1919249D3*
X1021465Y1139965D3*
X954535D3*
X523678Y1137751D3*
X456749D3*
X1425500Y1056500D3*
X1358571D3*
X1849751Y1040448D3*
X1916680D3*
X452320Y919000D3*
X519249D3*
X908965Y914965D3*
X842035D3*
X1919249Y906500D3*
X1852320D3*
X454535Y833715D3*
X521465D3*
X1483571Y794000D3*
X1550500D3*
X1019249Y694000D3*
X952320D3*
X1921465Y614965D3*
X1854535D3*
X1363000Y612751D3*
X1429929D3*
X521465Y602465D3*
X454535D3*
X1915214Y539965D3*
X1848285D3*
X1361550Y533715D3*
X1428479D3*
X1019249Y531500D3*
X952320D3*
X533965Y521215D3*
X467035D3*
X896833Y450251D3*
X829904D3*
X1690214Y446215D3*
X1623285D3*
D67*
X789575Y3589276D3*
X888000D3*
X986425D3*
X789575Y3018409D3*
X986425D3*
D124*
X695087Y3294000D3*
X1080913D3*
D65*
X1099106Y1999231D3*
X1124697D3*
X1150287D3*
X1175878D3*
X1201469D3*
X1227059D3*
X1252650Y1999239D3*
Y2227577D3*
X1227059D3*
X1201469D3*
X1175878D3*
X1150287D3*
X1124697D3*
X1099106D3*
D69*
X1756799Y1494050D3*
Y1544050D3*
Y1594050D3*
Y1644050D3*
X1544201D3*
Y1594050D3*
Y1544050D3*
Y1494050D3*
X838049Y1487799D3*
Y1537799D3*
Y1587799D3*
Y1637799D3*
X625450D3*
Y1587799D3*
Y1537799D3*
Y1487799D3*
X838049Y1069050D3*
Y1119050D3*
Y1169050D3*
Y1219050D3*
X625450D3*
Y1169050D3*
Y1119050D3*
Y1069050D3*
X1744299Y1062799D3*
Y1112799D3*
Y1162799D3*
Y1212799D3*
X1531701D3*
Y1162799D3*
Y1112799D3*
Y1062799D3*
X1756749Y544000D3*
Y594000D3*
Y644000D3*
Y694000D3*
X1544151D3*
Y644000D3*
Y594000D3*
Y544000D3*
X838000Y537749D3*
Y587749D3*
Y637749D3*
Y687749D3*
X625402D3*
Y637749D3*
Y587749D3*
Y537749D3*
D63*
X1881749Y3844000D3*
D61*
Y3944000D3*
Y4044000D3*
Y4144000D3*
D97*
X1945518Y3927717D3*
Y3860787D3*
X511505Y1371034D2*
D108*
X457959D1*
X447900Y1374361D1*
X444573Y1377766D1*
X441168Y1384420D1*
Y1391152D1*
X444573Y1397807D1*
X447900Y1401134D1*
X457959Y1404538D1*
X464614D1*
X441169Y1295874D2*
X511504D1*
X441169Y1322647D1*
X511504Y1349419D1*
X441168D1*
M02*
