G04 DipTrace 3.3.0.0*
G04 esp02.GBO*
%MOIN*%
G04 #@! TF.FileFunction,Legend,Bot*
G04 #@! TF.Part,Single*
%ADD10C,0.009843*%
%ADD18C,0.006*%
%ADD30C,0.005*%
%ADD37C,0.005984*%
%ADD107C,0.004632*%
%FSLAX26Y26*%
G04*
G70*
G90*
G75*
G01*
G04 BotSilk*
%LPD*%
X1740578Y2933871D2*
D18*
Y2863836D1*
X1775525Y2898836D2*
X1705582D1*
X1565695Y2848821D2*
Y2723836D1*
Y2948851D2*
Y3073836D1*
X1965704Y2948851D2*
Y3073836D1*
Y2848821D2*
Y2723836D1*
X1565695D1*
Y3073836D2*
X1965704D1*
X1565695Y2948851D2*
D37*
X1553221D1*
Y2848821D1*
X1565695D1*
X1740578Y2531135D2*
D18*
Y2461100D1*
X1775525Y2496100D2*
X1705582D1*
X1565695Y2446085D2*
Y2321100D1*
Y2546115D2*
Y2671100D1*
X1965704Y2546115D2*
Y2671100D1*
Y2446085D2*
Y2321100D1*
X1565695D1*
Y2671100D2*
X1965704D1*
X1565695Y2546115D2*
D37*
X1553221D1*
Y2446085D1*
X1565695D1*
X1752965Y2062630D2*
D18*
X1823000D1*
X1788000Y2097577D2*
Y2027633D1*
X1838015Y1887746D2*
X1963000D1*
X1737985D2*
X1613000D1*
X1737985Y2287756D2*
X1613000D1*
X1838015D2*
X1963000D1*
Y1887746D1*
X1613000D2*
Y2287756D1*
X1737985Y1887746D2*
D37*
Y1875272D1*
X1838015D1*
Y1887746D1*
X1352965Y2062630D2*
D18*
X1423000D1*
X1388000Y2097577D2*
Y2027633D1*
X1438015Y1887746D2*
X1563000D1*
X1337985D2*
X1213000D1*
X1337985Y2287756D2*
X1213000D1*
X1438015D2*
X1563000D1*
Y1887746D1*
X1213000D2*
Y2287756D1*
X1337985Y1887746D2*
D37*
Y1875272D1*
X1438015D1*
Y1887746D1*
X952965Y2062630D2*
D18*
X1023000D1*
X988000Y2097577D2*
Y2027633D1*
X1038015Y1887746D2*
X1163000D1*
X937985D2*
X813000D1*
X937985Y2287756D2*
X813000D1*
X1038015D2*
X1163000D1*
Y1887746D1*
X813000D2*
Y2287756D1*
X937985Y1887746D2*
D37*
Y1875272D1*
X1038015D1*
Y1887746D1*
X552965Y2062630D2*
D18*
X623000D1*
X588000Y2097577D2*
Y2027633D1*
X638015Y1887746D2*
X763000D1*
X537985D2*
X413000D1*
X537985Y2287756D2*
X413000D1*
X638015D2*
X763000D1*
Y1887746D1*
X413000D2*
Y2287756D1*
X537985Y1887746D2*
D37*
Y1875272D1*
X638015D1*
Y1887746D1*
X1823035Y1587872D2*
D18*
X1753000D1*
X1788000Y1552925D2*
Y1622868D1*
X1737985Y1762755D2*
X1613000D1*
X1838015D2*
X1963000D1*
X1838015Y1362746D2*
X1963000D1*
X1737985D2*
X1613000D1*
Y1762755D1*
X1963000D2*
Y1362746D1*
X1838015Y1762755D2*
D37*
Y1775229D1*
X1737985D1*
Y1762755D1*
X1423035Y1587872D2*
D18*
X1353000D1*
X1388000Y1552925D2*
Y1622868D1*
X1337985Y1762755D2*
X1213000D1*
X1438015D2*
X1563000D1*
X1438015Y1362746D2*
X1563000D1*
X1337985D2*
X1213000D1*
Y1762755D1*
X1563000D2*
Y1362746D1*
X1438015Y1762755D2*
D37*
Y1775229D1*
X1337985D1*
Y1762755D1*
X1023035Y1587872D2*
D18*
X953000D1*
X988000Y1552925D2*
Y1622868D1*
X937985Y1762755D2*
X813000D1*
X1038015D2*
X1163000D1*
X1038015Y1362746D2*
X1163000D1*
X937985D2*
X813000D1*
Y1762755D1*
X1163000D2*
Y1362746D1*
X1038015Y1762755D2*
D37*
Y1775229D1*
X937985D1*
Y1762755D1*
X623035Y1587872D2*
D18*
X553000D1*
X588000Y1552925D2*
Y1622868D1*
X537985Y1762755D2*
X413000D1*
X638015D2*
X763000D1*
X638015Y1362746D2*
X763000D1*
X537985D2*
X413000D1*
Y1762755D1*
X763000D2*
Y1362746D1*
X638015Y1762755D2*
D37*
Y1775229D1*
X537985D1*
Y1762755D1*
X1752965Y1112630D2*
D18*
X1823000D1*
X1788000Y1147577D2*
Y1077633D1*
X1838015Y937746D2*
X1963000D1*
X1737985D2*
X1613000D1*
X1737985Y1337756D2*
X1613000D1*
X1838015D2*
X1963000D1*
Y937746D1*
X1613000D2*
Y1337756D1*
X1737985Y937746D2*
D37*
Y925272D1*
X1838015D1*
Y937746D1*
X1352965Y1112630D2*
D18*
X1423000D1*
X1388000Y1147577D2*
Y1077633D1*
X1438015Y937746D2*
X1563000D1*
X1337985D2*
X1213000D1*
X1337985Y1337756D2*
X1213000D1*
X1438015D2*
X1563000D1*
Y937746D1*
X1213000D2*
Y1337756D1*
X1337985Y937746D2*
D37*
Y925272D1*
X1438015D1*
Y937746D1*
X952965Y1112630D2*
D18*
X1023000D1*
X988000Y1147577D2*
Y1077633D1*
X1038015Y937746D2*
X1163000D1*
X937985D2*
X813000D1*
X937985Y1337756D2*
X813000D1*
X1038015D2*
X1163000D1*
Y937746D1*
X813000D2*
Y1337756D1*
X937985Y937746D2*
D37*
Y925272D1*
X1038015D1*
Y937746D1*
X552965Y1112630D2*
D18*
X623000D1*
X588000Y1147577D2*
Y1077633D1*
X638015Y937746D2*
X763000D1*
X537985D2*
X413000D1*
X537985Y1337756D2*
X413000D1*
X638015D2*
X763000D1*
Y937746D1*
X413000D2*
Y1337756D1*
X537985Y937746D2*
D37*
Y925272D1*
X638015D1*
Y937746D1*
X1823035Y637872D2*
D18*
X1753000D1*
X1788000Y602925D2*
Y672868D1*
X1737985Y812755D2*
X1613000D1*
X1838015D2*
X1963000D1*
X1838015Y412746D2*
X1963000D1*
X1737985D2*
X1613000D1*
Y812755D1*
X1963000D2*
Y412746D1*
X1838015Y812755D2*
D37*
Y825229D1*
X1737985D1*
Y812755D1*
X1423035Y637872D2*
D18*
X1353000D1*
X1388000Y602925D2*
Y672868D1*
X1337985Y812755D2*
X1213000D1*
X1438015D2*
X1563000D1*
X1438015Y412746D2*
X1563000D1*
X1337985D2*
X1213000D1*
Y812755D1*
X1563000D2*
Y412746D1*
X1438015Y812755D2*
D37*
Y825229D1*
X1337985D1*
Y812755D1*
X1023035Y637872D2*
D18*
X953000D1*
X988000Y602925D2*
Y672868D1*
X937985Y812755D2*
X813000D1*
X1038015D2*
X1163000D1*
X1038015Y412746D2*
X1163000D1*
X937985D2*
X813000D1*
Y812755D1*
X1163000D2*
Y412746D1*
X1038015Y812755D2*
D37*
Y825229D1*
X937985D1*
Y812755D1*
X623035Y637872D2*
D18*
X553000D1*
X588000Y602925D2*
Y672868D1*
X537985Y812755D2*
X413000D1*
X638015D2*
X763000D1*
X638015Y412746D2*
X763000D1*
X537985D2*
X413000D1*
Y812755D1*
X763000D2*
Y412746D1*
X638015Y812755D2*
D37*
Y825229D1*
X537985D1*
Y812755D1*
X1146817Y2712224D2*
D10*
Y2515369D1*
X1044440Y2712224D2*
Y2515369D1*
X1146817D2*
X1044440D1*
X1115323Y2712224D2*
X1146817D1*
X1075934D2*
X1044440D1*
X1115323D2*
G02X1075934Y2712224I-19694J9D01*
G01*
X693892Y3553857D2*
D30*
X1082108D1*
Y3034164D1*
X693892D1*
Y3553857D1*
X785612Y3234958D2*
X990388D1*
X769905Y3294011D2*
G02X769905Y3294011I118095J0D01*
G01*
X1743923Y4230220D2*
D10*
X444741D1*
Y3757780D1*
X1743923D1*
Y4230220D1*
X1940804D2*
X1743923D1*
Y3757780D1*
X1940804D1*
Y4230220D1*
X1513499Y3067770D2*
D107*
Y3044822D1*
X1514925Y3040511D1*
X1516384Y3039085D1*
X1519236Y3037626D1*
X1522121D1*
X1524973Y3039085D1*
X1526399Y3040511D1*
X1527858Y3044822D1*
Y3047674D1*
X1504236Y3062000D2*
X1501351Y3063459D1*
X1497039Y3067737D1*
Y3037626D1*
X1519949Y2658783D2*
Y2635835D1*
X1521375Y2631524D1*
X1522834Y2630098D1*
X1525686Y2628639D1*
X1528571D1*
X1531423Y2630098D1*
X1532849Y2631524D1*
X1534308Y2635835D1*
Y2638687D1*
X1509226Y2651587D2*
Y2653013D1*
X1507800Y2655898D1*
X1506375Y2657324D1*
X1503489Y2658750D1*
X1497752D1*
X1494901Y2657324D1*
X1493475Y2655898D1*
X1492015Y2653013D1*
Y2650161D1*
X1493475Y2647276D1*
X1496327Y2642998D1*
X1510686Y2628639D1*
X1490590D1*
X1639251Y1869685D2*
Y1846737D1*
X1640677Y1842426D1*
X1642136Y1841000D1*
X1644988Y1839540D1*
X1647873D1*
X1650725Y1841000D1*
X1652151Y1842426D1*
X1653610Y1846737D1*
Y1849588D1*
X1627102Y1869651D2*
X1611350D1*
X1619939Y1858177D1*
X1615628D1*
X1612776Y1856751D1*
X1611350Y1855325D1*
X1609891Y1851014D1*
Y1848163D1*
X1611350Y1843852D1*
X1614202Y1840966D1*
X1618513Y1839540D1*
X1622824D1*
X1627102Y1840966D1*
X1628528Y1842426D1*
X1629987Y1845277D1*
X1246213Y1869685D2*
Y1846737D1*
X1247639Y1842426D1*
X1249098Y1841000D1*
X1251950Y1839540D1*
X1254835D1*
X1257687Y1841000D1*
X1259113Y1842426D1*
X1260572Y1846737D1*
Y1849588D1*
X1222591Y1839540D2*
Y1869651D1*
X1236950Y1849588D1*
X1215428D1*
X845500Y1875934D2*
Y1852986D1*
X846926Y1848675D1*
X848385Y1847249D1*
X851237Y1845790D1*
X854122D1*
X856974Y1847249D1*
X858400Y1848675D1*
X859859Y1852986D1*
Y1855838D1*
X819026Y1875901D2*
X833352D1*
X834778Y1863001D1*
X833352Y1864427D1*
X829041Y1865886D1*
X824763D1*
X820452Y1864427D1*
X817567Y1861575D1*
X816141Y1857264D1*
Y1854412D1*
X817567Y1850101D1*
X820452Y1847216D1*
X824763Y1845790D1*
X829041D1*
X833352Y1847216D1*
X834778Y1848675D1*
X836237Y1851527D1*
X463520Y1875934D2*
Y1852986D1*
X464946Y1848675D1*
X466405Y1847249D1*
X469257Y1845790D1*
X472142D1*
X474994Y1847249D1*
X476420Y1848675D1*
X477879Y1852986D1*
Y1855838D1*
X437046Y1871623D2*
X438472Y1874475D1*
X442783Y1875901D1*
X445634D1*
X449945Y1874475D1*
X452831Y1870164D1*
X454257Y1863001D1*
Y1855838D1*
X452831Y1850101D1*
X449945Y1847216D1*
X445634Y1845790D1*
X444208D1*
X439931Y1847216D1*
X437046Y1850101D1*
X435620Y1854412D1*
Y1855838D1*
X437046Y1860149D1*
X439931Y1863001D1*
X444208Y1864427D1*
X445634D1*
X449945Y1863001D1*
X452831Y1860149D1*
X454257Y1855838D1*
X1939251Y1807435D2*
Y1784487D1*
X1940677Y1780176D1*
X1942136Y1778750D1*
X1944988Y1777291D1*
X1947873D1*
X1950725Y1778750D1*
X1952151Y1780176D1*
X1953610Y1784487D1*
Y1787339D1*
X1924250Y1777291D2*
X1909891Y1807402D1*
X1929987D1*
X1532984Y1801185D2*
Y1778237D1*
X1534410Y1773926D1*
X1535869Y1772500D1*
X1538721Y1771040D1*
X1541606D1*
X1544458Y1772500D1*
X1545884Y1773926D1*
X1547343Y1778237D1*
Y1781088D1*
X1516557Y1801151D2*
X1520835Y1799725D1*
X1522294Y1796873D1*
Y1793988D1*
X1520835Y1791137D1*
X1517983Y1789677D1*
X1512246Y1788251D1*
X1507935Y1786825D1*
X1505083Y1783940D1*
X1503657Y1781088D1*
Y1776777D1*
X1505083Y1773926D1*
X1506509Y1772466D1*
X1510820Y1771040D1*
X1516557D1*
X1520835Y1772466D1*
X1522294Y1773926D1*
X1523720Y1776777D1*
Y1781088D1*
X1522294Y1783940D1*
X1519409Y1786825D1*
X1515131Y1788251D1*
X1509394Y1789677D1*
X1506509Y1791137D1*
X1505083Y1793988D1*
Y1796873D1*
X1506509Y1799725D1*
X1510820Y1801151D1*
X1516557D1*
X1101038Y1807435D2*
Y1784487D1*
X1102464Y1780176D1*
X1103923Y1778750D1*
X1106775Y1777291D1*
X1109660D1*
X1112512Y1778750D1*
X1113938Y1780176D1*
X1115397Y1784487D1*
Y1787339D1*
X1073104Y1797387D2*
X1074563Y1793076D1*
X1077415Y1790191D1*
X1081726Y1788765D1*
X1083152D1*
X1087463Y1790191D1*
X1090315Y1793076D1*
X1091774Y1797387D1*
Y1798813D1*
X1090315Y1803124D1*
X1087463Y1805976D1*
X1083152Y1807402D1*
X1081726D1*
X1077415Y1805976D1*
X1074563Y1803124D1*
X1073104Y1797387D1*
Y1790191D1*
X1074563Y1783028D1*
X1077415Y1778717D1*
X1081726Y1777291D1*
X1084578D1*
X1088889Y1778717D1*
X1090315Y1781602D1*
X741230Y1807435D2*
Y1784487D1*
X742656Y1780176D1*
X744115Y1778750D1*
X746967Y1777291D1*
X749852D1*
X752704Y1778750D1*
X754130Y1780176D1*
X755589Y1784487D1*
Y1787339D1*
X731967Y1801665D2*
X729081Y1803124D1*
X724770Y1807402D1*
Y1777291D1*
X706885Y1807402D2*
X711196Y1805976D1*
X714081Y1801665D1*
X715507Y1794502D1*
Y1790191D1*
X714081Y1783028D1*
X711196Y1778717D1*
X706885Y1777291D1*
X704033D1*
X699722Y1778717D1*
X696870Y1783028D1*
X695411Y1790191D1*
Y1794502D1*
X696870Y1801665D1*
X699722Y1805976D1*
X704033Y1807402D1*
X706885D1*
X696870Y1801665D2*
X714081Y1783028D1*
X1659780Y925935D2*
Y902987D1*
X1661206Y898676D1*
X1662665Y897250D1*
X1665517Y895791D1*
X1668402D1*
X1671254Y897250D1*
X1672680Y898676D1*
X1674139Y902987D1*
Y905839D1*
X1650517Y920165D2*
X1647632Y921624D1*
X1643320Y925902D1*
Y895791D1*
X1634057Y920165D2*
X1631172Y921624D1*
X1626861Y925902D1*
Y895791D1*
X1266230Y925935D2*
Y902987D1*
X1267656Y898676D1*
X1269115Y897250D1*
X1271967Y895791D1*
X1274852D1*
X1277704Y897250D1*
X1279130Y898676D1*
X1280589Y902987D1*
Y905839D1*
X1256967Y920165D2*
X1254081Y921624D1*
X1249770Y925902D1*
Y895791D1*
X1239048Y918739D2*
Y920165D1*
X1237622Y923050D1*
X1236196Y924476D1*
X1233311Y925902D1*
X1227574D1*
X1224722Y924476D1*
X1223296Y923050D1*
X1221837Y920165D1*
Y917313D1*
X1223296Y914428D1*
X1226148Y910150D1*
X1240507Y895791D1*
X1220411D1*
X853730Y919685D2*
Y896737D1*
X855156Y892426D1*
X856615Y891000D1*
X859467Y889540D1*
X862352D1*
X865204Y891000D1*
X866630Y892426D1*
X868089Y896737D1*
Y899588D1*
X844467Y913914D2*
X841581Y915373D1*
X837270Y919651D1*
Y889540D1*
X825122Y919651D2*
X809370D1*
X817959Y908177D1*
X813648D1*
X810796Y906751D1*
X809370Y905325D1*
X807911Y901014D1*
Y898163D1*
X809370Y893852D1*
X812222Y890966D1*
X816533Y889540D1*
X820844D1*
X825122Y890966D1*
X826548Y892426D1*
X828007Y895277D1*
X473194Y925935D2*
Y902987D1*
X474620Y898676D1*
X476079Y897250D1*
X478931Y895791D1*
X481816D1*
X484668Y897250D1*
X486094Y898676D1*
X487553Y902987D1*
Y905839D1*
X463930Y920165D2*
X461045Y921624D1*
X456734Y925902D1*
Y895791D1*
X433112D2*
Y925902D1*
X447471Y905839D1*
X425949D1*
X1928730Y863685D2*
Y840737D1*
X1930156Y836426D1*
X1931615Y835000D1*
X1934467Y833540D1*
X1937352D1*
X1940204Y835000D1*
X1941630Y836426D1*
X1943089Y840737D1*
Y843588D1*
X1919467Y857914D2*
X1916581Y859373D1*
X1912270Y863651D1*
Y833540D1*
X1885796Y863651D2*
X1900122D1*
X1901548Y850751D1*
X1900122Y852177D1*
X1895811Y853637D1*
X1891533D1*
X1887222Y852177D1*
X1884337Y849325D1*
X1882911Y845014D1*
Y842163D1*
X1884337Y837852D1*
X1887222Y834966D1*
X1891533Y833540D1*
X1895811D1*
X1900122Y834966D1*
X1901548Y836426D1*
X1903007Y839277D1*
X1528001Y863685D2*
Y840737D1*
X1529426Y836426D1*
X1530886Y835000D1*
X1533738Y833540D1*
X1536623D1*
X1539474Y835000D1*
X1540900Y836426D1*
X1542360Y840737D1*
Y843588D1*
X1518737Y857914D2*
X1515852Y859373D1*
X1511541Y863651D1*
Y833540D1*
X1485066Y859373D2*
X1486492Y862225D1*
X1490803Y863651D1*
X1493655D1*
X1497966Y862225D1*
X1500851Y857914D1*
X1502277Y850751D1*
Y843588D1*
X1500851Y837852D1*
X1497966Y834966D1*
X1493655Y833540D1*
X1492229D1*
X1487951Y834966D1*
X1485066Y837852D1*
X1483640Y842163D1*
Y843588D1*
X1485066Y847900D1*
X1487951Y850751D1*
X1492229Y852177D1*
X1493655D1*
X1497966Y850751D1*
X1500851Y847900D1*
X1502277Y843588D1*
X1134979Y863685D2*
Y840737D1*
X1136405Y836426D1*
X1137864Y835000D1*
X1140716Y833540D1*
X1143601D1*
X1146453Y835000D1*
X1147879Y836426D1*
X1149338Y840737D1*
Y843588D1*
X1125716Y857914D2*
X1122831Y859373D1*
X1118520Y863651D1*
Y833540D1*
X1103519D2*
X1089160Y863651D1*
X1109256D1*
X747464Y863685D2*
Y840737D1*
X748890Y836426D1*
X750349Y835000D1*
X753201Y833540D1*
X756086D1*
X758938Y835000D1*
X760364Y836426D1*
X761823Y840737D1*
Y843588D1*
X738201Y857914D2*
X735316Y859373D1*
X731005Y863651D1*
Y833540D1*
X714578Y863651D2*
X718856Y862225D1*
X720315Y859373D1*
Y856488D1*
X718856Y853637D1*
X716004Y852177D1*
X710267Y850751D1*
X705956Y849325D1*
X703104Y846440D1*
X701678Y843588D1*
Y839277D1*
X703104Y836426D1*
X704530Y834966D1*
X708841Y833540D1*
X714578D1*
X718856Y834966D1*
X720315Y836426D1*
X721741Y839277D1*
Y843588D1*
X720315Y846440D1*
X717430Y849325D1*
X713152Y850751D1*
X707415Y852177D1*
X704530Y853637D1*
X703104Y856488D1*
Y859373D1*
X704530Y862225D1*
X708841Y863651D1*
X714578D1*
X1121390Y2756158D2*
X1124275Y2754732D1*
X1127127Y2751847D1*
X1128586Y2748995D1*
X1130012Y2744684D1*
Y2737488D1*
X1128586Y2733210D1*
X1127127Y2730325D1*
X1124275Y2727473D1*
X1121390Y2726014D1*
X1115653D1*
X1112801Y2727473D1*
X1109916Y2730325D1*
X1108490Y2733210D1*
X1107064Y2737488D1*
Y2744684D1*
X1108490Y2748995D1*
X1109916Y2751847D1*
X1112801Y2754732D1*
X1115653Y2756158D1*
X1121390D1*
X1097801D2*
Y2726014D1*
X1077705Y2756158D2*
X1097801Y2736062D1*
X1090638Y2743258D2*
X1077705Y2726014D1*
X1068441Y2750387D2*
X1065556Y2751847D1*
X1061245Y2756124D1*
Y2726014D1*
X905173Y3658583D2*
X908025Y3661469D1*
X912336Y3662894D1*
X918073D1*
X922384Y3661469D1*
X925269Y3658583D1*
Y3655732D1*
X923810Y3652846D1*
X922384Y3651421D1*
X919532Y3649995D1*
X910910Y3647109D1*
X908025Y3645684D1*
X906599Y3644224D1*
X905173Y3641373D1*
Y3637061D1*
X908025Y3634210D1*
X912336Y3632750D1*
X918073D1*
X922384Y3634210D1*
X925269Y3637061D1*
X895909Y3662894D2*
X888713Y3632750D1*
X881550Y3662894D1*
X874387Y3632750D1*
X867191Y3662894D1*
X857927Y3657124D2*
X855042Y3658583D1*
X850731Y3662861D1*
Y3632750D1*
X1911235Y3724154D2*
Y3702632D1*
X1909809Y3698321D1*
X1906924Y3695469D1*
X1902613Y3694010D1*
X1899761D1*
X1895450Y3695469D1*
X1892565Y3698321D1*
X1891139Y3702632D1*
Y3724154D1*
X1874712Y3724121D2*
X1878990Y3722695D1*
X1880449Y3719843D1*
Y3716958D1*
X1878990Y3714106D1*
X1876138Y3712647D1*
X1870401Y3711221D1*
X1866090Y3709795D1*
X1863238Y3706910D1*
X1861812Y3704058D1*
Y3699747D1*
X1863238Y3696895D1*
X1864664Y3695436D1*
X1868975Y3694010D1*
X1874712D1*
X1878990Y3695436D1*
X1880449Y3696895D1*
X1881875Y3699747D1*
Y3704058D1*
X1880449Y3706910D1*
X1877564Y3709795D1*
X1873286Y3711221D1*
X1867549Y3712647D1*
X1864664Y3714106D1*
X1863238Y3716958D1*
Y3719843D1*
X1864664Y3722695D1*
X1868975Y3724121D1*
X1874712D1*
M02*
