M48
INCH
T01C0.0138
T02C0.03
T03C0.0354
T04C0.0394
T05C0.04
T06C0.052
T07C0.1102
%
T01
X+012630Y+035690
X+012630Y+035190
X+012205Y+034365
X+012608Y+034071
X+013624Y+032887
X+012847Y+031479
X+012403Y+030394
X+013405Y+029938
X+013522Y+028798
X+012590Y+029014
X+011401Y+027786
X+010989Y+027439
X+011131Y+027040
X+011131Y+026200
X+011415Y+025459
X+010996Y+024610
X+010519Y+024944
X+009804Y+024422
X+009085Y+025699
X+009085Y+026417
X+009085Y+028129
X+008304Y+028565
X+009041Y+029023
X+007701Y+029348
X+007764Y+027875
X+006004Y+028012
X+006009Y+028552
X+005653Y+029452
X+005947Y+027417
X+007726Y+031480
X+008553Y+031879
X+009882Y+031740
X+010453Y+029109
X+010648Y+028119
X+012552Y+026476
X+013146Y+026384
X+015324Y+026978
X+015755Y+027771
X+016575Y+027946
X+017599Y+027993
X+017599Y+027618
X+017599Y+027118
X+017974Y+027118
X+017974Y+027993
X+017230Y+029599
X+016575Y+030238
X+015658Y+031083
X+015638Y+032355
X+017122Y+032460
X+017882Y+032460
X+018560Y+032454
X+019024Y+033287
X+018760Y+033731
X+019106Y+034308
X+018051Y+033959
X+017404Y+033949
X+016836Y+034294
X+015961Y+033957
X+015425Y+033959
X+015266Y+035363
X+013632Y+035934
X+012076Y+036088
X+012067Y+036477
X+012086Y+037309
X+012160Y+037804
X+013103Y+038305
X+013626Y+037949
X+013154Y+039699
X+012181Y+039428
X+012138Y+041165
X+013141Y+041195
X+014985Y+041118
X+015577Y+038577
X+015577Y+037519
X+017453Y+037610
X+018477Y+037511
X+018185Y+036567
X+017439Y+036514
X+017935Y+041565
X+010207Y+041421
X+009696Y+039622
X+007838Y+041235
X+007260Y+040007
X+007247Y+038587
X+006293Y+037178
X+006254Y+035476
X+007175Y+034851
X+007402Y+034128
X+008045Y+033958
X+008809Y+034830
X+009572Y+034688
X+016187Y+025761
X+016630Y+025434
X+017636Y+025402
X+018099Y+025749
X+019057Y+026413
X+019324Y+026105
X+018410Y+023890
X+016630Y+024125
X+015835Y+023228
X+016254Y+022863
X+016906Y+022190
X+016080Y+021518
X+015068Y+020533
X+014703Y+019724
X+015068Y+019294
X+016449Y+019979
X+016738Y+019327
X+017302Y+018398
X+017015Y+017455
X+016324Y+017171
X+016100Y+017815
X+015083Y+017340
X+014751Y+016322
X+015024Y+015940
X+014751Y+015440
X+014615Y+014167
X+014503Y+013526
X+014380Y+012440
X+014551Y+011315
X+014630Y+010690
X+015253Y+009433
X+016141Y+009032
X+016943Y+009032
X+016924Y+007433
X+018489Y+007268
X+018999Y+008613
X+018999Y+010067
X+018577Y+010035
X+018545Y+011622
X+018156Y+012120
X+018630Y+012916
X+018383Y+013491
X+018996Y+013889
X+019005Y+014360
X+019014Y+015238
X+018327Y+015467
X+017658Y+014630
X+016879Y+014123
X+015804Y+014518
X+016924Y+015440
X+016674Y+016055
X+018327Y+016686
X+019030Y+016869
X+018811Y+021208
X+013698Y+021198
X+013369Y+021518
X+013023Y+021975
X+012653Y+022490
X+012409Y+023064
X+012168Y+023398
X+012645Y+023410
X+011548Y+023026
X+011232Y+022787
X+010594Y+022320
X+010751Y+021870
X+011738Y+021766
X+012286Y+021535
X+011759Y+020469
X+011398Y+020623
X+010652Y+020195
X+010545Y+019851
X+010953Y+019585
X+011503Y+019540
X+010953Y+018816
X+011228Y+018516
X+012244Y+018365
X+012903Y+018591
X+012617Y+017246
X+012380Y+016642
X+012655Y+016377
X+013325Y+016395
X+013308Y+015829
X+013390Y+014941
X+013067Y+014253
X+012027Y+014473
X+011505Y+014509
X+011067Y+014505
X+010533Y+014763
X+010412Y+015266
X+010708Y+015862
X+010412Y+016356
X+011046Y+017378
X+011522Y+017366
X+011895Y+017331
X+011918Y+016449
X+009197Y+016453
X+009048Y+015452
X+008889Y+014912
X+009022Y+014138
X+009179Y+013598
X+008145Y+013856
X+008407Y+012832
X+009500Y+012449
X+009076Y+011789
X+009171Y+011342
X+008798Y+011190
X+009171Y+010690
X+009130Y+010188
X+008914Y+009571
X+008215Y+010188
X+007397Y+011264
X+007760Y+011690
X+006618Y+012479
X+006890Y+013139
X+005233Y+012554
X+004538Y+012583
X+005557Y+011511
X+004556Y+009973
X+004492Y+008898
X+004527Y+008041
X+005202Y+007117
X+007307Y+006350
X+007293Y+005795
X+007303Y+005080
X+007927Y+005301
X+009138Y+005407
X+009282Y+006369
X+008963Y+007330
X+008215Y+007370
X+010554Y+006909
X+011130Y+006940
X+011178Y+006520
X+010554Y+006112
X+011379Y+005147
X+011130Y+004440
X+012630Y+004440
X+013005Y+004940
X+012880Y+005440
X+012880Y+005940
X+012404Y+005793
X+012821Y+006506
X+013261Y+006995
X+014646Y+006950
X+014830Y+006381
X+014580Y+005573
X+014499Y+004824
X+015442Y+005137
X+016141Y+004967
X+016884Y+004730
X+017557Y+005061
X+016884Y+005756
X+016317Y+005753
X+018489Y+005664
X+014767Y+007602
X+013068Y+009940
X+012550Y+011481
X+013213Y+012117
X+012533Y+012718
X+011239Y+012693
X+010369Y+012519
X+010630Y+013394
X+010509Y+011465
X+010554Y+010705
X+010671Y+010002
X+011519Y+011483
X+011278Y+007519
X+006755Y+010087
X+005109Y+014353
X+004567Y+014384
X+005224Y+015201
X+004524Y+015895
X+004524Y+016801
X+005192Y+016872
X+006796Y+017519
X+007380Y+017815
X+007828Y+017328
X+007380Y+016729
X+007489Y+016081
X+006866Y+015861
X+007828Y+015378
X+005249Y+018731
X+006826Y+020209
X+007895Y+020235
X+008931Y+020021
X+008963Y+020756
X+009060Y+022092
X+007512Y+022452
X+007209Y+022159
X+006724Y+022577
X+006836Y+023026
X+005548Y+021295
X+005228Y+021435
X+004910Y+021720
X+010482Y+020553
X+012977Y+020163
X+015566Y+012742
X+015778Y+011628
X+016480Y+011628
X+016461Y+011072
X+016995Y+012521
X+006648Y+004950
X+004793Y+004861
T02
X+018817Y+038215G85X+018817Y+038665
X+018817Y+039215G85X+018817Y+039665
X+018817Y+040215G85X+018817Y+040665
X+018817Y+041215G85X+018817Y+041665
T03
X+016380Y+031557
X+017380Y+031557
X+018380Y+031557
T04
X+004439Y+041440
X+004439Y+040440
X+004439Y+039440
X+004439Y+038440
X+004439Y+037440
X+004439Y+036440
X+004439Y+035440
X+004439Y+034440
X+004439Y+033440
X+004439Y+032440
X+004439Y+031440
X+004439Y+030440
X+004439Y+029440
X+004439Y+028440
X+004439Y+027440
X+004439Y+026440
X+004439Y+025440
X+004439Y+024440
X+004439Y+023440
X+007896Y+030184
X+009864Y+030184
X+014356Y+030440
X+014356Y+029440
X+014356Y+028440
X+014356Y+027440
X+014356Y+026440
X+014356Y+025440
X+014356Y+024440
X+014356Y+023440
X+014356Y+031440
X+014356Y+032440
X+014356Y+033440
X+014356Y+034440
X+014356Y+035440
X+014356Y+036440
X+014356Y+037440
X+014356Y+038440
X+014356Y+039440
X+014356Y+040440
X+014356Y+041440
X+009864Y+035893
X+008880Y+035893
X+007896Y+035893
T05
X+015037Y+028988
X+015037Y+024961
X+013880Y+018258
X+013880Y+018248
X+017880Y+018248
X+017880Y+018258
X+009880Y+018258
X+009880Y+018248
X+005880Y+018248
X+005880Y+018258
X+005880Y+008758
X+005880Y+008748
X+009880Y+008748
X+009880Y+008758
X+013880Y+008758
X+013880Y+008748
X+017880Y+008748
X+017880Y+008758
X+017318Y+038613
X+016318Y+038613
X+016318Y+039613
X+017318Y+039613
X+017318Y+040613
X+016318Y+040613
X+016318Y+041613
X+017318Y+041613
X+017318Y+042613
X+016318Y+042613
T06
X+016037Y+028988
X+019287Y+028988
X+019287Y+024961
X+017880Y+022508
X+016037Y+024961
X+013880Y+022508
X+013880Y+019258
X+013880Y+017248
X+013880Y+013998
X+013880Y+013008
X+013880Y+009758
X+013880Y+007748
X+013880Y+004498
X+017880Y+004498
X+017880Y+007748
X+017880Y+009758
X+017880Y+013008
X+017880Y+013998
X+017880Y+017248
X+017880Y+019258
X+009880Y+019258
X+009880Y+017248
X+009880Y+013998
X+009880Y+013008
X+009880Y+009758
X+009880Y+007748
X+009880Y+004498
X+005880Y+004498
X+005880Y+007748
X+005880Y+009758
X+005880Y+013008
X+005880Y+013998
X+005880Y+017248
X+005880Y+019258
X+005880Y+022508
X+009880Y+022508
T07
X+006951Y+032940
X+010809Y+032940
T00
M30
