G04 DipTrace 3.3.0.0*
G04 ESP_panel.GBL*
%MOIN*%
G04 #@! TF.FileFunction,Copper,L2,Bot*
G04 #@! TF.Part,Single*
G04 #@! TA.AperFunction,Conductor*
%ADD16C,0.012*%
G04 #@! TA.AperFunction,CopperBalancing*
%ADD17C,0.01*%
G04 #@! TA.AperFunction,ComponentPad*
%ADD21C,0.334646*%
%ADD22O,0.299213X0.177165*%
%FSLAX26Y26*%
G04*
G70*
G90*
G75*
G01*
G04 Bottom*
%LPD*%
X989425Y4023361D2*
D16*
X1270800D1*
X1225979Y3978541D1*
Y3968580D1*
X416000Y5419079D2*
D17*
X571978D1*
X814643D2*
X1571978D1*
X1814643D2*
X1970807D1*
X416000Y5409210D2*
X559986D1*
X826615D2*
X1559986D1*
X1826615D2*
X1970807D1*
X416000Y5399341D2*
X550963D1*
X835658D2*
X1550963D1*
X1835658D2*
X1970807D1*
X416000Y5389472D2*
X543951D1*
X842670D2*
X1543951D1*
X1842670D2*
X1970807D1*
X416000Y5379604D2*
X538521D1*
X848100D2*
X1538521D1*
X1848100D2*
X1970807D1*
X416000Y5369735D2*
X534381D1*
X852240D2*
X1534381D1*
X1852240D2*
X1970807D1*
X416000Y5359866D2*
X531373D1*
X855248D2*
X1531373D1*
X1855248D2*
X1970807D1*
X416000Y5349997D2*
X529420D1*
X857201D2*
X1529420D1*
X1857201D2*
X1970807D1*
X416000Y5340129D2*
X528443D1*
X858178D2*
X1528443D1*
X1858178D2*
X1970807D1*
X416000Y5330260D2*
X528404D1*
X858217D2*
X1528404D1*
X1858217D2*
X1970807D1*
X416000Y5320391D2*
X529322D1*
X857299D2*
X1529322D1*
X1857299D2*
X1970807D1*
X416000Y5310522D2*
X531236D1*
X855385D2*
X1531236D1*
X1855385D2*
X1970807D1*
X416000Y5300654D2*
X534166D1*
X852455D2*
X1534166D1*
X1852455D2*
X1970807D1*
X416000Y5290785D2*
X538228D1*
X848393D2*
X1538228D1*
X1848393D2*
X1970807D1*
X416000Y5280916D2*
X543580D1*
X843041D2*
X1543580D1*
X1843041D2*
X1970807D1*
X416000Y5271047D2*
X550475D1*
X836146D2*
X1550475D1*
X1836146D2*
X1970807D1*
X416000Y5261178D2*
X559381D1*
X827240D2*
X1559381D1*
X1827240D2*
X1970807D1*
X416000Y5251310D2*
X571119D1*
X815502D2*
X1571119D1*
X1815502D2*
X1970807D1*
X416000Y4530890D2*
X672408D1*
X1714408D2*
X1970807D1*
X416000Y4521021D2*
X672408D1*
X1714408D2*
X1970807D1*
X416000Y4511152D2*
X672408D1*
X1714408D2*
X1970807D1*
X416000Y4501283D2*
X672408D1*
X1714408D2*
X1970807D1*
X416000Y4491415D2*
X672408D1*
X1714408D2*
X1970807D1*
X416000Y4481546D2*
X672408D1*
X1714408D2*
X1970807D1*
X416000Y4471677D2*
X672408D1*
X1714408D2*
X1970807D1*
X416000Y4461808D2*
X672408D1*
X1714408D2*
X1970807D1*
X416000Y4451940D2*
X672408D1*
X1714408D2*
X1970807D1*
X416000Y4442071D2*
X672408D1*
X1714408D2*
X1970807D1*
X416000Y4432202D2*
X672408D1*
X1714408D2*
X1970807D1*
X416000Y4422333D2*
X672408D1*
X1714408D2*
X1970807D1*
X416000Y4412465D2*
X672408D1*
X1714408D2*
X1970807D1*
X416000Y4402596D2*
X672408D1*
X1714408D2*
X1970807D1*
X416000Y4392727D2*
X672408D1*
X1714408D2*
X1970807D1*
X416000Y4382858D2*
X672408D1*
X1714408D2*
X1970807D1*
X416000Y4372990D2*
X672408D1*
X1714408D2*
X1970807D1*
X416000Y4363121D2*
X672408D1*
X1714408D2*
X1970807D1*
X416000Y4353252D2*
X672408D1*
X1714408D2*
X1970807D1*
X416000Y4343383D2*
X672408D1*
X1714408D2*
X1970807D1*
X416000Y4333514D2*
X672408D1*
X1714408D2*
X1970807D1*
X416000Y4323646D2*
X672408D1*
X1714408D2*
X1970807D1*
X416000Y4313777D2*
X672408D1*
X1714408D2*
X1970807D1*
X416000Y4303908D2*
X672408D1*
X1714408D2*
X1970807D1*
X416000Y4294039D2*
X672408D1*
X1714408D2*
X1970807D1*
X416000Y4284171D2*
X672408D1*
X1714408D2*
X1970807D1*
X416000Y4274302D2*
X672408D1*
X1714408D2*
X1970807D1*
X416000Y4264433D2*
X672408D1*
X1714408D2*
X1970807D1*
X416000Y4254564D2*
X672408D1*
X1714408D2*
X1970807D1*
X416000Y4244696D2*
X672408D1*
X1714408D2*
X1970807D1*
X416000Y4234827D2*
X674596D1*
X1712201D2*
X1970807D1*
X416000Y4224958D2*
X686119D1*
X1700678D2*
X1970807D1*
X416000Y4215089D2*
X1970807D1*
X416000Y4205220D2*
X1970807D1*
X416000Y4195352D2*
X1970807D1*
X416000Y4185483D2*
X1970807D1*
X416000Y4175614D2*
X1970807D1*
X416000Y4165745D2*
X1970807D1*
X416000Y4155877D2*
X1970807D1*
X416000Y4146008D2*
X1970807D1*
X416000Y4136139D2*
X1970807D1*
X416000Y4126270D2*
X1970807D1*
X416000Y4116402D2*
X1970807D1*
X416000Y4106533D2*
X1970807D1*
X416000Y4096664D2*
X1970807D1*
X416000Y4086795D2*
X1970807D1*
X416000Y4076927D2*
X1970807D1*
X416000Y4067058D2*
X1970807D1*
X416000Y4057189D2*
X1970807D1*
X416000Y4047320D2*
X1970807D1*
X416000Y4037451D2*
X973678D1*
X1286557D2*
X1970807D1*
X416000Y4027583D2*
X968463D1*
X1291752D2*
X1970807D1*
X416000Y4017714D2*
X968814D1*
X1291400D2*
X1970807D1*
X416000Y4007845D2*
X975182D1*
X1285131D2*
X1970807D1*
X416000Y3997976D2*
X1215572D1*
X1275268D2*
X1970807D1*
X416000Y3988108D2*
X1206959D1*
X1265404D2*
X1970807D1*
X416000Y3978239D2*
X1204576D1*
X1255521D2*
X1970807D1*
X416000Y3968370D2*
X1204576D1*
X1247377D2*
X1970807D1*
X416000Y3958501D2*
X1207252D1*
X1244721D2*
X1970807D1*
X416000Y3948633D2*
X1220709D1*
X1231244D2*
X1970807D1*
X416000Y3938764D2*
X1970807D1*
X416000Y3928895D2*
X1970807D1*
X416000Y3919026D2*
X1970807D1*
X416000Y3909157D2*
X1970807D1*
X416000Y3899289D2*
X1970807D1*
X416000Y3889420D2*
X1970807D1*
X416000Y3879551D2*
X1970807D1*
X416000Y3869682D2*
X1970807D1*
X416000Y3859814D2*
X1970807D1*
X416000Y3849945D2*
X1462174D1*
X1524623D2*
X1970807D1*
X416000Y3840076D2*
X1430982D1*
X1555814D2*
X1970807D1*
X416000Y3830207D2*
X1412174D1*
X1574623D2*
X1970807D1*
X416000Y3820339D2*
X1398033D1*
X1588764D2*
X1970807D1*
X416000Y3810470D2*
X1386666D1*
X1600131D2*
X1970807D1*
X416000Y3800601D2*
X1377252D1*
X1609545D2*
X1970807D1*
X416000Y3790732D2*
X1369342D1*
X1617455D2*
X1970807D1*
X416000Y3780864D2*
X1362662D1*
X1624135D2*
X1970807D1*
X416000Y3770995D2*
X1357018D1*
X1629779D2*
X1970807D1*
X416000Y3761126D2*
X1352311D1*
X1634486D2*
X1970807D1*
X416000Y3751257D2*
X1348424D1*
X1638393D2*
X1970807D1*
X416000Y3741388D2*
X1345299D1*
X1641518D2*
X1970807D1*
X416000Y3731520D2*
X1342877D1*
X1643920D2*
X1970807D1*
X416000Y3721651D2*
X1341139D1*
X1645658D2*
X1970807D1*
X416000Y3711782D2*
X1340064D1*
X1646732D2*
X1970807D1*
X416000Y3701913D2*
X1339635D1*
X1647162D2*
X1970807D1*
X416000Y3692045D2*
X1339850D1*
X1646947D2*
X1970807D1*
X416000Y3682176D2*
X1340689D1*
X1646107D2*
X1970807D1*
X416000Y3672307D2*
X1342193D1*
X1644603D2*
X1970807D1*
X416000Y3662438D2*
X1344361D1*
X1642436D2*
X1970807D1*
X416000Y3652570D2*
X1347252D1*
X1639564D2*
X1970807D1*
X416000Y3642701D2*
X1350865D1*
X1635932D2*
X1970807D1*
X416000Y3632832D2*
X1355279D1*
X1631518D2*
X1970807D1*
X416000Y3622963D2*
X1360592D1*
X1626205D2*
X1970807D1*
X416000Y3613095D2*
X1366900D1*
X1619896D2*
X1970807D1*
X416000Y3603226D2*
X1374361D1*
X1612455D2*
X1970807D1*
X416000Y3593357D2*
X1383209D1*
X1603588D2*
X1970807D1*
X416000Y3583488D2*
X1393814D1*
X1592982D2*
X1970807D1*
X416000Y3573619D2*
X1406861D1*
X1579936D2*
X1970807D1*
X416000Y3563751D2*
X1423697D1*
X1563100D2*
X1970807D1*
X416000Y3553882D2*
X1448463D1*
X1538334D2*
X1970807D1*
X416000Y3544013D2*
X1970807D1*
X416000Y3534144D2*
X1970807D1*
X416000Y3524276D2*
X1970807D1*
X416000Y3514407D2*
X1970807D1*
X416000Y3504538D2*
X1970807D1*
X416000Y3494669D2*
X1970807D1*
X416000Y3484801D2*
X1970807D1*
X416000Y3474932D2*
X595182D1*
X686225D2*
X1970807D1*
X416000Y3465063D2*
X566471D1*
X714936D2*
X1970807D1*
X416000Y3455194D2*
X547252D1*
X734154D2*
X1970807D1*
X416000Y3445325D2*
X532291D1*
X749115D2*
X1970807D1*
X416000Y3435457D2*
X519967D1*
X761420D2*
X1970807D1*
X416000Y3425588D2*
X509576D1*
X771830D2*
X1970807D1*
X416000Y3415719D2*
X500631D1*
X780775D2*
X1970807D1*
X416000Y3405850D2*
X492896D1*
X788510D2*
X1970807D1*
X416000Y3395982D2*
X486178D1*
X795228D2*
X1970807D1*
X416000Y3386113D2*
X480357D1*
X801049D2*
X1970807D1*
X416000Y3376244D2*
X475338D1*
X806068D2*
X1970807D1*
X416000Y3366375D2*
X471021D1*
X810365D2*
X1970807D1*
X416000Y3356507D2*
X467408D1*
X813998D2*
X1970807D1*
X416000Y3346638D2*
X464400D1*
X817006D2*
X1970807D1*
X416000Y3336769D2*
X461998D1*
X819408D2*
X1970807D1*
X416000Y3326900D2*
X460162D1*
X821225D2*
X1970807D1*
X416000Y3317032D2*
X458893D1*
X822494D2*
X1970807D1*
X416000Y3307163D2*
X458170D1*
X823236D2*
X1970807D1*
X416000Y3297294D2*
X457975D1*
X823412D2*
X1970807D1*
X416000Y3287425D2*
X458326D1*
X823061D2*
X1970807D1*
X416000Y3277556D2*
X459225D1*
X822182D2*
X1970807D1*
X416000Y3267688D2*
X460650D1*
X820756D2*
X1970807D1*
X416000Y3257819D2*
X462643D1*
X818764D2*
X1970807D1*
X416000Y3247950D2*
X465221D1*
X816186D2*
X1970807D1*
X416000Y3238081D2*
X468404D1*
X813002D2*
X1970807D1*
X416000Y3228213D2*
X472232D1*
X809174D2*
X1970807D1*
X416000Y3218344D2*
X476725D1*
X804662D2*
X1970807D1*
X416000Y3208475D2*
X481978D1*
X799408D2*
X1970807D1*
X416000Y3198606D2*
X488053D1*
X793334D2*
X1970807D1*
X416000Y3188738D2*
X495064D1*
X786342D2*
X1970807D1*
X416000Y3178869D2*
X503131D1*
X778275D2*
X1970807D1*
X416000Y3169000D2*
X512467D1*
X768939D2*
X1970807D1*
X416000Y3159131D2*
X523385D1*
X758021D2*
X1970807D1*
X416000Y3149262D2*
X536373D1*
X745033D2*
X1970807D1*
X416000Y3139394D2*
X552350D1*
X729057D2*
X1970807D1*
X416000Y3129525D2*
X573463D1*
X707924D2*
X1970807D1*
X416000Y3119656D2*
X608893D1*
X672514D2*
X1970807D1*
X416000Y3109787D2*
X1970807D1*
X416000Y3099919D2*
X1970807D1*
X416000Y3090050D2*
X1970807D1*
X416000Y3080181D2*
X1970807D1*
X416000Y3070312D2*
X588170D1*
X693217D2*
X1970807D1*
X416000Y3060444D2*
X562252D1*
X719135D2*
X1970807D1*
X416000Y3050575D2*
X544068D1*
X737318D2*
X1970807D1*
X416000Y3040706D2*
X529713D1*
X751693D2*
X1970807D1*
X416000Y3030837D2*
X517818D1*
X763588D2*
X1970807D1*
X416000Y3020969D2*
X507721D1*
X773686D2*
X1970807D1*
X416000Y3011100D2*
X499029D1*
X782357D2*
X1970807D1*
X416000Y3001231D2*
X491510D1*
X789896D2*
X1970807D1*
X416000Y2991362D2*
X484986D1*
X796420D2*
X1970807D1*
X416000Y2981493D2*
X479322D1*
X802084D2*
X1970807D1*
X416000Y2971625D2*
X474439D1*
X806967D2*
X1970807D1*
X416000Y2961756D2*
X470279D1*
X811127D2*
X1970807D1*
X416000Y2951887D2*
X466764D1*
X814623D2*
X1970807D1*
X416000Y2942018D2*
X463893D1*
X817514D2*
X1970807D1*
X416000Y2932150D2*
X461607D1*
X819799D2*
X1970807D1*
X416000Y2922281D2*
X459889D1*
X821518D2*
X1970807D1*
X416000Y2912412D2*
X458717D1*
X822689D2*
X1970807D1*
X416000Y2902543D2*
X458092D1*
X823314D2*
X1970807D1*
X416000Y2892675D2*
X458014D1*
X823393D2*
X1970807D1*
X416000Y2882806D2*
X458463D1*
X822943D2*
X1970807D1*
X416000Y2872937D2*
X459459D1*
X821947D2*
X1970807D1*
X416000Y2863068D2*
X461002D1*
X820404D2*
X1970807D1*
X416000Y2853199D2*
X463092D1*
X818295D2*
X1970807D1*
X416000Y2843331D2*
X465787D1*
X815600D2*
X1970807D1*
X416000Y2833462D2*
X469088D1*
X812299D2*
X1970807D1*
X416000Y2823593D2*
X473053D1*
X808353D2*
X1970807D1*
X416000Y2813724D2*
X477701D1*
X803705D2*
X1970807D1*
X416000Y2803856D2*
X483092D1*
X798295D2*
X1970807D1*
X416000Y2793987D2*
X489342D1*
X792064D2*
X1970807D1*
X416000Y2784118D2*
X496549D1*
X784857D2*
X1970807D1*
X416000Y2774249D2*
X504830D1*
X776557D2*
X1970807D1*
X416000Y2764381D2*
X514459D1*
X766947D2*
X1970807D1*
X416000Y2754512D2*
X525728D1*
X755678D2*
X1970807D1*
X416000Y2744643D2*
X539205D1*
X742201D2*
X1970807D1*
X416000Y2734774D2*
X555943D1*
X725443D2*
X1970807D1*
X416000Y2724906D2*
X578600D1*
X702807D2*
X1970807D1*
X416000Y2715037D2*
X623619D1*
X657768D2*
X1970807D1*
X416000Y2705168D2*
X1970807D1*
X416000Y2695299D2*
X1970807D1*
X416000Y2685430D2*
X1970807D1*
X416000Y2675562D2*
X1970807D1*
X416000Y2665693D2*
X1970807D1*
X416000Y2655824D2*
X1970807D1*
X416000Y2645955D2*
X551275D1*
X635521D2*
X951275D1*
X1035521D2*
X1351275D1*
X1435521D2*
X1751275D1*
X1835521D2*
X1970807D1*
X416000Y2636087D2*
X521080D1*
X665736D2*
X921080D1*
X1065736D2*
X1321080D1*
X1465736D2*
X1721080D1*
X1865736D2*
X1970807D1*
X416000Y2626218D2*
X501353D1*
X685443D2*
X901353D1*
X1085443D2*
X1301353D1*
X1485443D2*
X1701353D1*
X1885443D2*
X1970807D1*
X416000Y2616349D2*
X486119D1*
X700678D2*
X886119D1*
X1100678D2*
X1286119D1*
X1500678D2*
X1686119D1*
X1900678D2*
X1970807D1*
X416000Y2606480D2*
X473619D1*
X713178D2*
X873619D1*
X1113178D2*
X1273619D1*
X1513178D2*
X1673619D1*
X1913178D2*
X1970807D1*
X416000Y2596612D2*
X463072D1*
X723725D2*
X863072D1*
X1123725D2*
X1263072D1*
X1523725D2*
X1663072D1*
X1923725D2*
X1970807D1*
X416000Y2586743D2*
X454029D1*
X732768D2*
X854029D1*
X1132768D2*
X1254029D1*
X1532768D2*
X1654029D1*
X1932768D2*
X1970807D1*
X416000Y2576874D2*
X446197D1*
X740600D2*
X846197D1*
X1140600D2*
X1246197D1*
X1540600D2*
X1646197D1*
X1940600D2*
X1970807D1*
X416000Y2567005D2*
X439400D1*
X747396D2*
X839400D1*
X1147396D2*
X1239400D1*
X1547396D2*
X1639400D1*
X1947396D2*
X1970807D1*
X416000Y2557136D2*
X433502D1*
X753295D2*
X833502D1*
X1153295D2*
X1233502D1*
X1553295D2*
X1633502D1*
X1953295D2*
X1970807D1*
X416000Y2547268D2*
X428424D1*
X758373D2*
X828424D1*
X1158373D2*
X1228424D1*
X1558373D2*
X1628424D1*
X1958373D2*
X1970807D1*
X416000Y2537399D2*
X424068D1*
X762728D2*
X824068D1*
X1162728D2*
X1224068D1*
X1562728D2*
X1624068D1*
X1962728D2*
X1970807D1*
X416000Y2527530D2*
X420377D1*
X766420D2*
X820377D1*
X1166420D2*
X1220377D1*
X1566420D2*
X1620377D1*
X1966420D2*
X1970800D1*
X769467Y2517661D2*
X817330D1*
X1169467D2*
X1217330D1*
X1569467D2*
X1617330D1*
X771928Y2507793D2*
X814869D1*
X1171928D2*
X1214869D1*
X1571928D2*
X1614869D1*
X773803Y2497924D2*
X812994D1*
X1173803D2*
X1212994D1*
X1573803D2*
X1612994D1*
X775111Y2488055D2*
X811686D1*
X1175111D2*
X1211686D1*
X1575111D2*
X1611686D1*
X775893Y2478186D2*
X810904D1*
X1175893D2*
X1210904D1*
X1575893D2*
X1610904D1*
X776127Y2468318D2*
X810670D1*
X1176127D2*
X1210670D1*
X1576127D2*
X1610670D1*
X775814Y2458449D2*
X810982D1*
X1175814D2*
X1210982D1*
X1575814D2*
X1610982D1*
X774975Y2448580D2*
X811822D1*
X1174975D2*
X1211822D1*
X1574975D2*
X1611822D1*
X773588Y2438711D2*
X813209D1*
X1173588D2*
X1213209D1*
X1573588D2*
X1613209D1*
X771635Y2428843D2*
X815162D1*
X1171635D2*
X1215162D1*
X1571635D2*
X1615162D1*
X769115Y2418974D2*
X817682D1*
X1169115D2*
X1217682D1*
X1569115D2*
X1617682D1*
X416000Y2409105D2*
X420807D1*
X765990D2*
X820807D1*
X1165990D2*
X1220807D1*
X1565990D2*
X1620807D1*
X1965990D2*
X1970807D1*
X416000Y2399236D2*
X424576D1*
X762221D2*
X824576D1*
X1162221D2*
X1224576D1*
X1562221D2*
X1624576D1*
X1962221D2*
X1970807D1*
X416000Y2389367D2*
X429029D1*
X757768D2*
X829029D1*
X1157768D2*
X1229029D1*
X1557768D2*
X1629029D1*
X1957768D2*
X1970807D1*
X416000Y2379499D2*
X434225D1*
X752592D2*
X834225D1*
X1152592D2*
X1234225D1*
X1552592D2*
X1634225D1*
X1952592D2*
X1970807D1*
X416000Y2369630D2*
X440221D1*
X746576D2*
X840221D1*
X1146576D2*
X1240221D1*
X1546576D2*
X1640221D1*
X1946576D2*
X1970807D1*
X416000Y2359761D2*
X447135D1*
X739662D2*
X847135D1*
X1139662D2*
X1247135D1*
X1539662D2*
X1647135D1*
X1939662D2*
X1970807D1*
X416000Y2349892D2*
X455103D1*
X731693D2*
X855103D1*
X1131693D2*
X1255103D1*
X1531693D2*
X1655103D1*
X1931693D2*
X1970807D1*
X416000Y2340024D2*
X464322D1*
X722475D2*
X864322D1*
X1122475D2*
X1264322D1*
X1522475D2*
X1664322D1*
X1922475D2*
X1970807D1*
X416000Y2330155D2*
X475103D1*
X711693D2*
X875103D1*
X1111693D2*
X1275103D1*
X1511693D2*
X1675103D1*
X1911693D2*
X1970807D1*
X416000Y2320286D2*
X487896D1*
X698920D2*
X887896D1*
X1098920D2*
X1287896D1*
X1498920D2*
X1687896D1*
X1898920D2*
X1970807D1*
X416000Y2310417D2*
X503561D1*
X683236D2*
X903561D1*
X1083236D2*
X1303561D1*
X1483236D2*
X1703561D1*
X1883236D2*
X1970807D1*
X416000Y2300549D2*
X524107D1*
X662709D2*
X924107D1*
X1062709D2*
X1324107D1*
X1462709D2*
X1724107D1*
X1862709D2*
X1970807D1*
X416000Y2290680D2*
X557135D1*
X629662D2*
X957135D1*
X1029662D2*
X1357135D1*
X1429662D2*
X1757135D1*
X1829662D2*
X1970807D1*
X416000Y2280811D2*
X1970807D1*
X416000Y2270942D2*
X1970807D1*
X416000Y2261074D2*
X1970807D1*
X416000Y2251205D2*
X1970807D1*
X416000Y2241336D2*
X1970807D1*
X416000Y2231467D2*
X1970807D1*
X416000Y2221598D2*
X1970807D1*
X416000Y2211730D2*
X1970807D1*
X416000Y2201861D2*
X1970807D1*
X416000Y2191992D2*
X1970807D1*
X416000Y2182123D2*
X1970807D1*
X416000Y2172255D2*
X556978D1*
X629643D2*
X957330D1*
X1029467D2*
X1357330D1*
X1429467D2*
X1756978D1*
X1829643D2*
X1970807D1*
X416000Y2162386D2*
X523990D1*
X662650D2*
X924205D1*
X1062611D2*
X1324205D1*
X1462611D2*
X1723971D1*
X1862631D2*
X1970807D1*
X416000Y2152517D2*
X503463D1*
X683178D2*
X903639D1*
X1083158D2*
X1303639D1*
X1483158D2*
X1703443D1*
X1883158D2*
X1970807D1*
X416000Y2142648D2*
X487779D1*
X698842D2*
X887936D1*
X1098861D2*
X1287936D1*
X1498861D2*
X1687779D1*
X1898842D2*
X1970807D1*
X416000Y2132780D2*
X475006D1*
X711635D2*
X875143D1*
X1111654D2*
X1275143D1*
X1511654D2*
X1674986D1*
X1911615D2*
X1970807D1*
X416000Y2122911D2*
X464225D1*
X722396D2*
X864361D1*
X1122436D2*
X1264361D1*
X1522436D2*
X1664225D1*
X1922396D2*
X1970807D1*
X416000Y2113042D2*
X455006D1*
X731615D2*
X855143D1*
X1131654D2*
X1255143D1*
X1531654D2*
X1655006D1*
X1931615D2*
X1970807D1*
X416000Y2103173D2*
X447037D1*
X739584D2*
X847174D1*
X1139643D2*
X1247174D1*
X1539643D2*
X1647037D1*
X1939584D2*
X1970807D1*
X416000Y2093304D2*
X440123D1*
X746498D2*
X840240D1*
X1146557D2*
X1240240D1*
X1546557D2*
X1640123D1*
X1946498D2*
X1970807D1*
X416000Y2083436D2*
X434127D1*
X752514D2*
X834244D1*
X1152553D2*
X1234244D1*
X1552553D2*
X1634107D1*
X1952494D2*
X1970807D1*
X416000Y2073567D2*
X428932D1*
X757689D2*
X829049D1*
X1157748D2*
X1229049D1*
X1557748D2*
X1628932D1*
X1957689D2*
X1970807D1*
X416000Y2063698D2*
X424498D1*
X762143D2*
X824596D1*
X1162201D2*
X1224596D1*
X1562201D2*
X1624478D1*
X1962123D2*
X1970807D1*
X416000Y2053829D2*
X420728D1*
X765912D2*
X820826D1*
X1165971D2*
X1220826D1*
X1565971D2*
X1620709D1*
X1965893D2*
X1970807D1*
X769037Y2043961D2*
X817701D1*
X1169096D2*
X1217701D1*
X1569096D2*
X1617584D1*
X771557Y2034092D2*
X815162D1*
X1171635D2*
X1215162D1*
X1571635D2*
X1615064D1*
X773510Y2024223D2*
X813209D1*
X1173588D2*
X1213209D1*
X1573588D2*
X1613111D1*
X774896Y2014354D2*
X811822D1*
X1174975D2*
X1211822D1*
X1574975D2*
X1611725D1*
X775736Y2004486D2*
X810982D1*
X1175814D2*
X1210982D1*
X1575814D2*
X1610885D1*
X776029Y1994617D2*
X810670D1*
X1176127D2*
X1210670D1*
X1576127D2*
X1610592D1*
X775795Y1984748D2*
X810904D1*
X1175893D2*
X1210904D1*
X1575893D2*
X1610826D1*
X775033Y1974879D2*
X811686D1*
X1175111D2*
X1211686D1*
X1575111D2*
X1611588D1*
X773705Y1965011D2*
X812994D1*
X1173803D2*
X1212994D1*
X1573803D2*
X1612916D1*
X771830Y1955142D2*
X814869D1*
X1171928D2*
X1214869D1*
X1571928D2*
X1614791D1*
X769389Y1945273D2*
X817311D1*
X1169486D2*
X1217311D1*
X1569486D2*
X1617232D1*
X416000Y1935404D2*
X420299D1*
X766322D2*
X820357D1*
X1166439D2*
X1220357D1*
X1566439D2*
X1620279D1*
X1966322D2*
X1970806D1*
X416000Y1925535D2*
X423990D1*
X762650D2*
X824049D1*
X1162748D2*
X1224049D1*
X1562748D2*
X1623971D1*
X1962631D2*
X1970807D1*
X416000Y1915667D2*
X428346D1*
X758295D2*
X828404D1*
X1158393D2*
X1228404D1*
X1558393D2*
X1628326D1*
X1958275D2*
X1970807D1*
X416000Y1905798D2*
X433424D1*
X753197D2*
X833482D1*
X1153314D2*
X1233482D1*
X1553314D2*
X1633424D1*
X1953178D2*
X1970807D1*
X416000Y1895929D2*
X439322D1*
X747299D2*
X839381D1*
X1147416D2*
X1239381D1*
X1547416D2*
X1639322D1*
X1947299D2*
X1970807D1*
X416000Y1886060D2*
X446119D1*
X740502D2*
X846178D1*
X1140639D2*
X1246178D1*
X1540639D2*
X1646119D1*
X1940502D2*
X1970807D1*
X416000Y1876192D2*
X453951D1*
X732670D2*
X853990D1*
X1132807D2*
X1253990D1*
X1532807D2*
X1653932D1*
X1932670D2*
X1970807D1*
X416000Y1866323D2*
X462994D1*
X723627D2*
X863033D1*
X1123764D2*
X1263033D1*
X1523764D2*
X1662994D1*
X1923607D2*
X1970807D1*
X416000Y1856454D2*
X473561D1*
X713080D2*
X873580D1*
X1113217D2*
X1273580D1*
X1513217D2*
X1673541D1*
X1913061D2*
X1970807D1*
X416000Y1846585D2*
X486041D1*
X700580D2*
X886061D1*
X1100736D2*
X1286061D1*
X1500736D2*
X1686041D1*
X1900561D2*
X1970807D1*
X416000Y1836717D2*
X501295D1*
X685346D2*
X901295D1*
X1085521D2*
X1301295D1*
X1485521D2*
X1701275D1*
X1885326D2*
X1970807D1*
X416000Y1826848D2*
X521021D1*
X665619D2*
X920982D1*
X1065814D2*
X1320982D1*
X1465814D2*
X1721002D1*
X1865600D2*
X1970807D1*
X416000Y1816979D2*
X551236D1*
X635385D2*
X951100D1*
X1035697D2*
X1351100D1*
X1435697D2*
X1751236D1*
X1835365D2*
X1970807D1*
X416000Y1807110D2*
X1970807D1*
X416000Y1797241D2*
X1970807D1*
X416000Y1787373D2*
X1970807D1*
X416000Y1777504D2*
X1970807D1*
X416000Y1767635D2*
X1970807D1*
X416000Y1757766D2*
X1970807D1*
X416000Y1747898D2*
X1970807D1*
X416000Y1738029D2*
X1970807D1*
X416000Y1728160D2*
X1970807D1*
X416000Y1718291D2*
X1970807D1*
X416000Y1708423D2*
X1970807D1*
X416000Y1698554D2*
X564322D1*
X622299D2*
X964322D1*
X1022299D2*
X1364322D1*
X1422299D2*
X1764322D1*
X1822299D2*
X1970807D1*
X416000Y1688685D2*
X527271D1*
X659350D2*
X927271D1*
X1059350D2*
X1327271D1*
X1459350D2*
X1727271D1*
X1859350D2*
X1970807D1*
X416000Y1678816D2*
X505807D1*
X680814D2*
X905807D1*
X1080814D2*
X1305807D1*
X1480814D2*
X1705807D1*
X1880814D2*
X1970807D1*
X416000Y1668948D2*
X489654D1*
X696967D2*
X889654D1*
X1096967D2*
X1289654D1*
X1496967D2*
X1689654D1*
X1896967D2*
X1970807D1*
X416000Y1659079D2*
X476549D1*
X710072D2*
X876549D1*
X1110072D2*
X1276549D1*
X1510072D2*
X1676549D1*
X1910072D2*
X1970807D1*
X416000Y1649210D2*
X465553D1*
X721068D2*
X865553D1*
X1121068D2*
X1265553D1*
X1521068D2*
X1665553D1*
X1921068D2*
X1970807D1*
X416000Y1639341D2*
X456139D1*
X730482D2*
X856139D1*
X1130482D2*
X1256139D1*
X1530482D2*
X1656139D1*
X1930482D2*
X1970807D1*
X416000Y1629472D2*
X448014D1*
X738588D2*
X848014D1*
X1138588D2*
X1248014D1*
X1538607D2*
X1648014D1*
X1938588D2*
X1970807D1*
X416000Y1619604D2*
X440982D1*
X745639D2*
X840982D1*
X1145639D2*
X1240982D1*
X1545639D2*
X1640982D1*
X1945639D2*
X1970807D1*
X416000Y1609735D2*
X434869D1*
X751752D2*
X834869D1*
X1151752D2*
X1234869D1*
X1551752D2*
X1634869D1*
X1951752D2*
X1970807D1*
X416000Y1599866D2*
X429576D1*
X757045D2*
X829576D1*
X1157045D2*
X1229576D1*
X1557045D2*
X1629576D1*
X1957045D2*
X1970807D1*
X416000Y1589997D2*
X425025D1*
X761596D2*
X825025D1*
X1161596D2*
X1225025D1*
X1561596D2*
X1625025D1*
X1961596D2*
X1970807D1*
X416000Y1580129D2*
X421178D1*
X765443D2*
X821178D1*
X1165443D2*
X1221178D1*
X1565443D2*
X1621178D1*
X1965443D2*
X1970807D1*
X768646Y1570260D2*
X817975D1*
X1168646D2*
X1217975D1*
X1568646D2*
X1617975D1*
X771264Y1560391D2*
X815357D1*
X1171264D2*
X1215357D1*
X1571264D2*
X1615357D1*
X773275Y1550522D2*
X813346D1*
X1173275D2*
X1213346D1*
X1573275D2*
X1613346D1*
X774740Y1540654D2*
X811881D1*
X1174740D2*
X1211881D1*
X1574740D2*
X1611881D1*
X775658Y1530785D2*
X810963D1*
X1175658D2*
X1210963D1*
X1575658D2*
X1610963D1*
X776029Y1520916D2*
X810592D1*
X1176029D2*
X1210592D1*
X1576029D2*
X1610592D1*
X775853Y1511047D2*
X810768D1*
X1175853D2*
X1210768D1*
X1575853D2*
X1610768D1*
X775150Y1501178D2*
X811471D1*
X1175150D2*
X1211471D1*
X1575150D2*
X1611471D1*
X773920Y1491310D2*
X812701D1*
X1173920D2*
X1212701D1*
X1573920D2*
X1612701D1*
X772103Y1481441D2*
X814518D1*
X1172103D2*
X1214518D1*
X1572103D2*
X1614518D1*
X769740Y1471572D2*
X816881D1*
X1169740D2*
X1216881D1*
X1569740D2*
X1616881D1*
X416000Y1461703D2*
X419850D1*
X766771D2*
X819850D1*
X1166771D2*
X1219850D1*
X1566771D2*
X1619850D1*
X1966771D2*
X1970810D1*
X416000Y1451835D2*
X423463D1*
X763158D2*
X823463D1*
X1163158D2*
X1223463D1*
X1563158D2*
X1623463D1*
X1963158D2*
X1970807D1*
X416000Y1441966D2*
X427721D1*
X758900D2*
X827721D1*
X1158900D2*
X1227721D1*
X1558900D2*
X1627721D1*
X1958900D2*
X1970807D1*
X416000Y1432097D2*
X432721D1*
X753900D2*
X832721D1*
X1153900D2*
X1232721D1*
X1553900D2*
X1632721D1*
X1953900D2*
X1970807D1*
X416000Y1422228D2*
X438502D1*
X748119D2*
X838502D1*
X1148119D2*
X1238502D1*
X1548119D2*
X1638502D1*
X1948119D2*
X1970807D1*
X416000Y1412360D2*
X445162D1*
X741459D2*
X845162D1*
X1141459D2*
X1245162D1*
X1541459D2*
X1645162D1*
X1941459D2*
X1970807D1*
X416000Y1402491D2*
X452857D1*
X733764D2*
X852857D1*
X1133764D2*
X1252857D1*
X1533764D2*
X1652857D1*
X1933764D2*
X1970807D1*
X416000Y1392622D2*
X461725D1*
X724896D2*
X861725D1*
X1124896D2*
X1261725D1*
X1524896D2*
X1661725D1*
X1924896D2*
X1970807D1*
X416000Y1382753D2*
X472057D1*
X714564D2*
X872057D1*
X1114564D2*
X1272057D1*
X1514564D2*
X1672057D1*
X1914564D2*
X1970807D1*
X416000Y1372885D2*
X484264D1*
X702357D2*
X884264D1*
X1102357D2*
X1284264D1*
X1502357D2*
X1684264D1*
X1902357D2*
X1970807D1*
X416000Y1363016D2*
X499068D1*
X687533D2*
X899068D1*
X1087533D2*
X1299088D1*
X1487533D2*
X1699068D1*
X1887533D2*
X1970807D1*
X416000Y1353147D2*
X518033D1*
X668588D2*
X918033D1*
X1068588D2*
X1318033D1*
X1468588D2*
X1718033D1*
X1868588D2*
X1970807D1*
X416000Y1343278D2*
X546002D1*
X640619D2*
X946002D1*
X1040619D2*
X1346002D1*
X1440619D2*
X1746002D1*
X1840619D2*
X1970807D1*
X416000Y1333409D2*
X1970807D1*
X416000Y1323541D2*
X1970807D1*
X416000Y1313672D2*
X1970807D1*
X416000Y1303803D2*
X1970807D1*
X416000Y1293934D2*
X1970807D1*
X416000Y1284066D2*
X1970807D1*
X416000Y1274197D2*
X1970807D1*
X416000Y1264328D2*
X1970807D1*
X416000Y1254459D2*
X1970807D1*
X416000Y1244591D2*
X1970807D1*
X416000Y1234722D2*
X1970807D1*
X416000Y1224853D2*
X574557D1*
X612064D2*
X974557D1*
X1012064D2*
X1374557D1*
X1412064D2*
X1774557D1*
X1812064D2*
X1970807D1*
X416000Y1214984D2*
X530768D1*
X655853D2*
X930768D1*
X1055853D2*
X1330768D1*
X1455853D2*
X1730768D1*
X1855853D2*
X1970807D1*
X416000Y1205116D2*
X508248D1*
X678353D2*
X908248D1*
X1078353D2*
X1308248D1*
X1478373D2*
X1708248D1*
X1878353D2*
X1970807D1*
X416000Y1195247D2*
X491568D1*
X695053D2*
X891568D1*
X1095053D2*
X1291568D1*
X1495053D2*
X1691568D1*
X1895053D2*
X1970807D1*
X416000Y1185378D2*
X478131D1*
X708490D2*
X878131D1*
X1108490D2*
X1278131D1*
X1508490D2*
X1678131D1*
X1908490D2*
X1970807D1*
X416000Y1175509D2*
X466900D1*
X719721D2*
X866900D1*
X1119721D2*
X1266900D1*
X1519721D2*
X1666900D1*
X1919721D2*
X1970807D1*
X416000Y1165640D2*
X457311D1*
X729311D2*
X857311D1*
X1129311D2*
X1257311D1*
X1529311D2*
X1657311D1*
X1929311D2*
X1970807D1*
X416000Y1155772D2*
X449029D1*
X737592D2*
X849029D1*
X1137592D2*
X1249029D1*
X1537592D2*
X1649029D1*
X1937592D2*
X1970807D1*
X416000Y1145903D2*
X441842D1*
X744779D2*
X841842D1*
X1144779D2*
X1241842D1*
X1544779D2*
X1641842D1*
X1944779D2*
X1970807D1*
X416000Y1136034D2*
X435611D1*
X751010D2*
X835611D1*
X1151010D2*
X1235611D1*
X1551010D2*
X1635611D1*
X1951010D2*
X1970807D1*
X416000Y1126165D2*
X430221D1*
X756400D2*
X830221D1*
X1156400D2*
X1230221D1*
X1556400D2*
X1630221D1*
X1956400D2*
X1970807D1*
X416000Y1116297D2*
X425592D1*
X761029D2*
X825592D1*
X1161029D2*
X1225592D1*
X1561029D2*
X1625592D1*
X1961029D2*
X1970807D1*
X416000Y1106428D2*
X421646D1*
X764975D2*
X821646D1*
X1164975D2*
X1221646D1*
X1564975D2*
X1621646D1*
X1964975D2*
X1970807D1*
X768256Y1096559D2*
X818346D1*
X1168256D2*
X1218346D1*
X1568275D2*
X1618346D1*
X770951Y1086690D2*
X815670D1*
X1170951D2*
X1215670D1*
X1570951D2*
X1615670D1*
X773041Y1076822D2*
X813580D1*
X1173041D2*
X1213580D1*
X1573041D2*
X1613580D1*
X774584Y1066953D2*
X812037D1*
X1174584D2*
X1212037D1*
X1574584D2*
X1612037D1*
X775561Y1057084D2*
X811061D1*
X1175561D2*
X1211061D1*
X1575561D2*
X1611061D1*
X776010Y1047215D2*
X810611D1*
X1176010D2*
X1210611D1*
X1576010D2*
X1610611D1*
X775912Y1037346D2*
X810709D1*
X1175912D2*
X1210709D1*
X1575912D2*
X1610709D1*
X775287Y1027478D2*
X811334D1*
X1175287D2*
X1211334D1*
X1575287D2*
X1611334D1*
X774115Y1017609D2*
X812506D1*
X1174115D2*
X1212506D1*
X1574115D2*
X1612506D1*
X772377Y1007740D2*
X814244D1*
X1172377D2*
X1214244D1*
X1572377D2*
X1614244D1*
X770072Y997871D2*
X816529D1*
X1170072D2*
X1216549D1*
X1570072D2*
X1616529D1*
X416000Y988003D2*
X419420D1*
X767182D2*
X819420D1*
X1167182D2*
X1219439D1*
X1567182D2*
X1619420D1*
X1967182D2*
X1970814D1*
X416000Y978134D2*
X422936D1*
X763666D2*
X822936D1*
X1163666D2*
X1222936D1*
X1563686D2*
X1622936D1*
X1963666D2*
X1970807D1*
X416000Y968265D2*
X427115D1*
X759506D2*
X827115D1*
X1159506D2*
X1227115D1*
X1559506D2*
X1627115D1*
X1959506D2*
X1970807D1*
X416000Y958396D2*
X432018D1*
X754603D2*
X832018D1*
X1154603D2*
X1232018D1*
X1554603D2*
X1632018D1*
X1954603D2*
X1970807D1*
X416000Y948528D2*
X437682D1*
X748939D2*
X837682D1*
X1148939D2*
X1237682D1*
X1548939D2*
X1637682D1*
X1948939D2*
X1970807D1*
X416000Y938659D2*
X444225D1*
X742377D2*
X844225D1*
X1142377D2*
X1244244D1*
X1542377D2*
X1644225D1*
X1942377D2*
X1970807D1*
X416000Y928790D2*
X451783D1*
X734838D2*
X851783D1*
X1134838D2*
X1251783D1*
X1534838D2*
X1651783D1*
X1934838D2*
X1970807D1*
X416000Y918921D2*
X460475D1*
X726146D2*
X860475D1*
X1126146D2*
X1260475D1*
X1526146D2*
X1660475D1*
X1926146D2*
X1970807D1*
X416000Y909053D2*
X470611D1*
X716010D2*
X870611D1*
X1116010D2*
X1270611D1*
X1516010D2*
X1670611D1*
X1916010D2*
X1970807D1*
X416000Y899184D2*
X482525D1*
X704096D2*
X882525D1*
X1104096D2*
X1282525D1*
X1504096D2*
X1682525D1*
X1904096D2*
X1970807D1*
X416000Y889315D2*
X496939D1*
X689682D2*
X896939D1*
X1089682D2*
X1296939D1*
X1489682D2*
X1696939D1*
X1889682D2*
X1970807D1*
X416000Y879446D2*
X515201D1*
X671420D2*
X915201D1*
X1071420D2*
X1315201D1*
X1471420D2*
X1715201D1*
X1871420D2*
X1970807D1*
X416000Y869577D2*
X541314D1*
X645307D2*
X941314D1*
X1045307D2*
X1341314D1*
X1445307D2*
X1741314D1*
X1845307D2*
X1970807D1*
X416000Y859709D2*
X1970807D1*
X416000Y849840D2*
X1970807D1*
X416000Y839971D2*
X1970807D1*
X416000Y830102D2*
X1970807D1*
X416000Y820234D2*
X1970807D1*
X416000Y810365D2*
X1970807D1*
X416000Y800496D2*
X1970807D1*
X416000Y790627D2*
X1970807D1*
X416000Y780759D2*
X1970807D1*
X416000Y770890D2*
X1970807D1*
X416000Y761021D2*
X1970807D1*
X416000Y751152D2*
X1970807D1*
X416000Y741283D2*
X1970807D1*
X416000Y731415D2*
X1970807D1*
X416000Y721546D2*
X1970807D1*
X416000Y711677D2*
X1970807D1*
X416000Y701808D2*
X1970807D1*
X416000Y691940D2*
X1970807D1*
X416000Y682071D2*
X1970807D1*
X416000Y672202D2*
X1970807D1*
X416000Y662333D2*
X1970807D1*
X416000Y652465D2*
X1970807D1*
X416000Y642596D2*
X1970807D1*
X416000Y632727D2*
X1970807D1*
X416000Y622858D2*
X1970807D1*
X416000Y612990D2*
X610826D1*
X775775D2*
X1610826D1*
X1775775D2*
X1970807D1*
X416000Y603121D2*
X583189D1*
X803432D2*
X1583189D1*
X1803432D2*
X1970807D1*
X416000Y593252D2*
X567936D1*
X818686D2*
X1567936D1*
X1818686D2*
X1970807D1*
X416000Y583383D2*
X556998D1*
X829623D2*
X1556998D1*
X1829623D2*
X1970807D1*
X416000Y573514D2*
X548658D1*
X837963D2*
X1548658D1*
X1837963D2*
X1970807D1*
X416000Y563646D2*
X542154D1*
X844467D2*
X1542154D1*
X1844467D2*
X1970807D1*
X416000Y553777D2*
X537135D1*
X849486D2*
X1537135D1*
X1849486D2*
X1970807D1*
X416000Y543908D2*
X533346D1*
X853275D2*
X1533346D1*
X1853275D2*
X1970807D1*
X416000Y534039D2*
X530670D1*
X855951D2*
X1530670D1*
X1855951D2*
X1970807D1*
X416000Y524171D2*
X529010D1*
X857592D2*
X1529010D1*
X1857592D2*
X1970807D1*
X416000Y514302D2*
X528326D1*
X858295D2*
X1528326D1*
X1858295D2*
X1970807D1*
X416000Y504433D2*
X528580D1*
X858041D2*
X1528580D1*
X1858041D2*
X1970807D1*
X416000Y494564D2*
X529791D1*
X856811D2*
X1529791D1*
X1856811D2*
X1970807D1*
X416000Y484696D2*
X531998D1*
X854623D2*
X1531998D1*
X1854623D2*
X1970807D1*
X416000Y474827D2*
X535260D1*
X851342D2*
X1535260D1*
X1851342D2*
X1970807D1*
X416000Y464958D2*
X539713D1*
X846908D2*
X1539713D1*
X1846908D2*
X1970807D1*
X416000Y455089D2*
X545494D1*
X841127D2*
X1545494D1*
X1841127D2*
X1970807D1*
X416000Y445220D2*
X552936D1*
X833686D2*
X1552936D1*
X1833686D2*
X1970807D1*
X416000Y435352D2*
X562564D1*
X824057D2*
X1562564D1*
X1824057D2*
X1970807D1*
X416000Y425483D2*
X575514D1*
X811107D2*
X1575514D1*
X1811107D2*
X1970807D1*
X416000Y415614D2*
X595182D1*
X791439D2*
X1595182D1*
X1791439D2*
X1970807D1*
X1646087Y3695198D2*
X1645433Y3685221D1*
X1644128Y3675308D1*
X1642177Y3665502D1*
X1639589Y3655845D1*
X1636375Y3646377D1*
X1632548Y3637140D1*
X1628126Y3628173D1*
X1623126Y3619515D1*
X1617571Y3611202D1*
X1611483Y3603271D1*
X1604890Y3595754D1*
X1597820Y3588685D1*
X1590302Y3582094D1*
X1582369Y3576008D1*
X1574055Y3570454D1*
X1565396Y3565457D1*
X1556428Y3561036D1*
X1547191Y3557211D1*
X1537722Y3553999D1*
X1528064Y3551413D1*
X1518258Y3549464D1*
X1508345Y3548161D1*
X1498368Y3547509D1*
X1488370Y3547511D1*
X1478393Y3548167D1*
X1468481Y3549474D1*
X1458675Y3551427D1*
X1449018Y3554017D1*
X1439551Y3557233D1*
X1430315Y3561061D1*
X1421349Y3565486D1*
X1412692Y3570487D1*
X1404380Y3576044D1*
X1396450Y3582133D1*
X1388935Y3588728D1*
X1381867Y3595800D1*
X1375277Y3603319D1*
X1369193Y3611253D1*
X1363641Y3619568D1*
X1358645Y3628228D1*
X1354226Y3637197D1*
X1350403Y3646435D1*
X1347193Y3655904D1*
X1344609Y3665563D1*
X1342662Y3675369D1*
X1341361Y3685283D1*
X1340711Y3695260D1*
X1340715Y3705258D1*
X1341373Y3715234D1*
X1342682Y3725147D1*
X1344637Y3734952D1*
X1347229Y3744608D1*
X1350447Y3754074D1*
X1354277Y3763310D1*
X1358704Y3772275D1*
X1363707Y3780931D1*
X1369265Y3789242D1*
X1375356Y3797171D1*
X1381952Y3804685D1*
X1389025Y3811751D1*
X1396546Y3818339D1*
X1404481Y3824422D1*
X1412797Y3829972D1*
X1421459Y3834966D1*
X1430428Y3839383D1*
X1439667Y3843204D1*
X1449137Y3846413D1*
X1458796Y3848995D1*
X1468603Y3850940D1*
X1478517Y3852239D1*
X1488494Y3852887D1*
X1498492Y3852881D1*
X1508468Y3852221D1*
X1518380Y3850910D1*
X1528185Y3848953D1*
X1537841Y3846359D1*
X1547306Y3843139D1*
X1556541Y3839307D1*
X1565505Y3834879D1*
X1574161Y3829874D1*
X1582470Y3824313D1*
X1590398Y3818221D1*
X1597910Y3811624D1*
X1604975Y3804549D1*
X1611562Y3797027D1*
X1617643Y3789091D1*
X1623191Y3780773D1*
X1628184Y3772111D1*
X1632599Y3763140D1*
X1636419Y3753900D1*
X1639625Y3744430D1*
X1642205Y3734771D1*
X1644148Y3724963D1*
X1645445Y3715049D1*
X1646091Y3705072D1*
X1646087Y3695198D1*
X1574965Y1039001D2*
X1574415Y1029017D1*
X1573317Y1019079D1*
X1571673Y1009216D1*
X1569490Y999458D1*
X1566774Y989836D1*
X1563532Y980377D1*
X1559775Y971111D1*
X1555514Y962066D1*
X1550762Y953268D1*
X1545534Y944746D1*
X1539844Y936524D1*
X1533711Y928627D1*
X1527153Y921079D1*
X1520189Y913904D1*
X1512842Y907122D1*
X1505133Y900755D1*
X1497085Y894822D1*
X1488723Y889340D1*
X1480072Y884326D1*
X1471158Y879796D1*
X1462009Y875763D1*
X1452652Y872239D1*
X1443115Y869235D1*
X1433427Y866760D1*
X1423618Y864822D1*
X1413717Y863427D1*
X1403755Y862578D1*
X1393760Y862278D1*
X1383765Y862528D1*
X1373798Y863328D1*
X1363890Y864675D1*
X1354072Y866564D1*
X1344372Y868991D1*
X1334820Y871947D1*
X1325446Y875425D1*
X1316277Y879413D1*
X1307341Y883899D1*
X1298665Y888870D1*
X1290276Y894310D1*
X1282199Y900204D1*
X1274458Y906533D1*
X1267077Y913278D1*
X1260079Y920419D1*
X1253483Y927933D1*
X1247311Y935800D1*
X1241581Y943994D1*
X1236310Y952490D1*
X1231515Y961264D1*
X1227209Y970288D1*
X1223406Y979536D1*
X1220118Y988978D1*
X1217354Y998587D1*
X1215122Y1008334D1*
X1213430Y1018188D1*
X1212283Y1028121D1*
X1211684Y1038102D1*
X1211634Y1048101D1*
X1212135Y1058087D1*
X1213184Y1068030D1*
X1214778Y1077901D1*
X1216913Y1087669D1*
X1219582Y1097305D1*
X1222777Y1106780D1*
X1226488Y1116064D1*
X1230704Y1125131D1*
X1235412Y1133951D1*
X1240599Y1142500D1*
X1246248Y1150750D1*
X1252341Y1158677D1*
X1258862Y1166257D1*
X1265790Y1173467D1*
X1273104Y1180285D1*
X1280782Y1186690D1*
X1288800Y1192663D1*
X1297135Y1198186D1*
X1305761Y1203243D1*
X1314652Y1207817D1*
X1323781Y1211895D1*
X1333121Y1215465D1*
X1342643Y1218516D1*
X1352318Y1221039D1*
X1362117Y1223026D1*
X1372011Y1224470D1*
X1381969Y1225369D1*
X1391962Y1225718D1*
X1401959Y1225517D1*
X1411929Y1224767D1*
X1421844Y1223469D1*
X1431671Y1221628D1*
X1441383Y1219249D1*
X1450949Y1216340D1*
X1460341Y1212909D1*
X1469529Y1208966D1*
X1478487Y1204525D1*
X1487187Y1199597D1*
X1495603Y1194198D1*
X1503710Y1188344D1*
X1511482Y1182054D1*
X1518896Y1175345D1*
X1525930Y1168239D1*
X1532562Y1160757D1*
X1538773Y1152921D1*
X1544544Y1144756D1*
X1549857Y1136285D1*
X1554696Y1127535D1*
X1559046Y1118533D1*
X1562894Y1109304D1*
X1566229Y1099878D1*
X1569041Y1090283D1*
X1571321Y1080547D1*
X1573061Y1070701D1*
X1574258Y1060774D1*
X1574906Y1050797D1*
X1574965Y1039001D1*
X774964D2*
X774414Y1029017D1*
X773315Y1019079D1*
X771672Y1009216D1*
X769489Y999458D1*
X766773Y989836D1*
X763531Y980377D1*
X759774Y971111D1*
X755513Y962066D1*
X750761Y953268D1*
X745532Y944746D1*
X739843Y936524D1*
X733710Y928627D1*
X727151Y921079D1*
X720188Y913904D1*
X712841Y907122D1*
X705131Y900755D1*
X697083Y894822D1*
X688721Y889340D1*
X680070Y884326D1*
X671157Y879796D1*
X662008Y875763D1*
X652650Y872239D1*
X643113Y869235D1*
X633426Y866760D1*
X623617Y864822D1*
X613716Y863427D1*
X603753Y862578D1*
X593759Y862278D1*
X583763Y862528D1*
X573797Y863328D1*
X563889Y864675D1*
X554071Y866564D1*
X544371Y868991D1*
X534819Y871947D1*
X525445Y875425D1*
X516276Y879413D1*
X507340Y883899D1*
X498664Y888870D1*
X490275Y894310D1*
X482198Y900204D1*
X474457Y906533D1*
X467076Y913278D1*
X460077Y920419D1*
X453482Y927933D1*
X447310Y935800D1*
X441580Y943994D1*
X436309Y952490D1*
X431513Y961264D1*
X427208Y970288D1*
X423405Y979536D1*
X420117Y988978D1*
X417352Y998587D1*
X415003Y1008968D1*
X415000Y415000D1*
X597871D1*
X590310Y418018D1*
X581390Y422531D1*
X572950Y427887D1*
X565069Y434036D1*
X557822Y440921D1*
X551276Y448475D1*
X545493Y456629D1*
X540528Y465304D1*
X536427Y474421D1*
X533230Y483892D1*
X530966Y493628D1*
X529656Y503538D1*
X529314Y513528D1*
X529941Y523504D1*
X531533Y533373D1*
X534074Y543041D1*
X537541Y552416D1*
X541900Y561412D1*
X547111Y569942D1*
X553124Y577928D1*
X559883Y585292D1*
X567324Y591967D1*
X575378Y597888D1*
X583967Y603001D1*
X593012Y607257D1*
X602426Y610617D1*
X612122Y613047D1*
X622009Y614526D1*
X631991Y615040D1*
X759037Y614933D1*
X768989Y613992D1*
X778802Y612091D1*
X788385Y609248D1*
X797648Y605488D1*
X806502Y600849D1*
X814864Y595373D1*
X822657Y589112D1*
X829805Y582125D1*
X836243Y574477D1*
X841909Y566242D1*
X846749Y557496D1*
X850719Y548322D1*
X853781Y538807D1*
X855906Y529039D1*
X857074Y519111D1*
X857316Y512058D1*
X856831Y502073D1*
X855380Y492183D1*
X852977Y482480D1*
X849645Y473056D1*
X845414Y463999D1*
X840326Y455395D1*
X834427Y447325D1*
X827774Y439865D1*
X820429Y433085D1*
X812461Y427048D1*
X803945Y421813D1*
X794962Y417429D1*
X788679Y415000D1*
X1597871D1*
X1590310Y418018D1*
X1581390Y422531D1*
X1572950Y427887D1*
X1565069Y434036D1*
X1557822Y440921D1*
X1551276Y448475D1*
X1545493Y456629D1*
X1540528Y465304D1*
X1536427Y474421D1*
X1533230Y483892D1*
X1530966Y493628D1*
X1529656Y503538D1*
X1529314Y513528D1*
X1529941Y523504D1*
X1531533Y533373D1*
X1534074Y543041D1*
X1537541Y552416D1*
X1541900Y561412D1*
X1547111Y569942D1*
X1553124Y577928D1*
X1559883Y585292D1*
X1567324Y591967D1*
X1575378Y597888D1*
X1583967Y603001D1*
X1593012Y607257D1*
X1602426Y610617D1*
X1612122Y613047D1*
X1622009Y614526D1*
X1631991Y615040D1*
X1759037Y614933D1*
X1768989Y613992D1*
X1778802Y612091D1*
X1788385Y609248D1*
X1797648Y605488D1*
X1806502Y600849D1*
X1814864Y595373D1*
X1822657Y589112D1*
X1829805Y582125D1*
X1836243Y574477D1*
X1841909Y566242D1*
X1846749Y557496D1*
X1850719Y548322D1*
X1853781Y538807D1*
X1855906Y529039D1*
X1857074Y519111D1*
X1857316Y512058D1*
X1856831Y502073D1*
X1855380Y492183D1*
X1852977Y482480D1*
X1849645Y473056D1*
X1845414Y463999D1*
X1840326Y455395D1*
X1834427Y447325D1*
X1827774Y439865D1*
X1820429Y433085D1*
X1812461Y427048D1*
X1803945Y421813D1*
X1794962Y417429D1*
X1788679Y415000D1*
X1971816D1*
X1971800Y1009863D1*
X1969489Y999458D1*
X1966773Y989836D1*
X1963531Y980377D1*
X1959774Y971111D1*
X1955513Y962066D1*
X1950761Y953268D1*
X1945532Y944746D1*
X1939843Y936524D1*
X1933710Y928627D1*
X1927151Y921079D1*
X1920188Y913904D1*
X1912841Y907122D1*
X1905131Y900755D1*
X1897083Y894822D1*
X1888721Y889340D1*
X1880070Y884326D1*
X1871157Y879796D1*
X1862008Y875763D1*
X1852650Y872239D1*
X1843113Y869235D1*
X1833426Y866760D1*
X1823617Y864822D1*
X1813716Y863427D1*
X1803753Y862578D1*
X1793759Y862278D1*
X1783763Y862528D1*
X1773797Y863328D1*
X1763889Y864675D1*
X1754071Y866564D1*
X1744371Y868991D1*
X1734819Y871947D1*
X1725445Y875425D1*
X1716276Y879413D1*
X1707340Y883899D1*
X1698664Y888870D1*
X1690275Y894310D1*
X1682198Y900204D1*
X1674457Y906533D1*
X1667076Y913278D1*
X1660077Y920419D1*
X1653482Y927933D1*
X1647310Y935800D1*
X1641580Y943994D1*
X1636309Y952490D1*
X1631513Y961264D1*
X1627208Y970288D1*
X1623405Y979536D1*
X1620117Y988978D1*
X1617352Y998587D1*
X1615121Y1008334D1*
X1613429Y1018188D1*
X1612282Y1028121D1*
X1611682Y1038102D1*
X1611633Y1048101D1*
X1612133Y1058087D1*
X1613182Y1068030D1*
X1614777Y1077901D1*
X1616912Y1087669D1*
X1619581Y1097305D1*
X1622775Y1106780D1*
X1626486Y1116064D1*
X1630703Y1125131D1*
X1635411Y1133951D1*
X1640597Y1142500D1*
X1646246Y1150750D1*
X1652340Y1158677D1*
X1658861Y1166257D1*
X1665789Y1173467D1*
X1673103Y1180285D1*
X1680780Y1186690D1*
X1688799Y1192663D1*
X1697134Y1198186D1*
X1705760Y1203243D1*
X1714651Y1207817D1*
X1723780Y1211895D1*
X1733119Y1215465D1*
X1742641Y1218516D1*
X1752317Y1221039D1*
X1762116Y1223026D1*
X1772010Y1224470D1*
X1781968Y1225369D1*
X1791961Y1225718D1*
X1801957Y1225517D1*
X1811928Y1224767D1*
X1821842Y1223469D1*
X1831670Y1221628D1*
X1841382Y1219249D1*
X1850948Y1216340D1*
X1860339Y1212909D1*
X1869528Y1208966D1*
X1878486Y1204525D1*
X1887186Y1199597D1*
X1895602Y1194198D1*
X1903708Y1188344D1*
X1911480Y1182054D1*
X1918894Y1175345D1*
X1925929Y1168239D1*
X1932561Y1160757D1*
X1938772Y1152921D1*
X1944543Y1144756D1*
X1949855Y1136285D1*
X1954694Y1127535D1*
X1959044Y1118533D1*
X1962893Y1109304D1*
X1966228Y1099878D1*
X1969040Y1090283D1*
X1971319Y1080547D1*
X1971799Y1078034D1*
X1971800Y1484863D1*
X1969489Y1474458D1*
X1966773Y1464836D1*
X1963531Y1455377D1*
X1959774Y1446111D1*
X1955513Y1437066D1*
X1950761Y1428268D1*
X1945532Y1419746D1*
X1939843Y1411524D1*
X1933710Y1403627D1*
X1927151Y1396079D1*
X1920188Y1388904D1*
X1912841Y1382122D1*
X1905131Y1375755D1*
X1897083Y1369822D1*
X1888721Y1364340D1*
X1880070Y1359326D1*
X1871157Y1354796D1*
X1862008Y1350763D1*
X1852650Y1347239D1*
X1843113Y1344235D1*
X1833426Y1341760D1*
X1823617Y1339822D1*
X1813716Y1338427D1*
X1803753Y1337578D1*
X1793759Y1337278D1*
X1783763Y1337528D1*
X1773797Y1338328D1*
X1763889Y1339675D1*
X1754071Y1341564D1*
X1744371Y1343991D1*
X1734819Y1346947D1*
X1725445Y1350425D1*
X1716276Y1354413D1*
X1707340Y1358899D1*
X1698664Y1363870D1*
X1690275Y1369310D1*
X1682198Y1375204D1*
X1674457Y1381533D1*
X1667076Y1388278D1*
X1660077Y1395419D1*
X1653482Y1402933D1*
X1647310Y1410800D1*
X1641580Y1418994D1*
X1636309Y1427490D1*
X1631513Y1436264D1*
X1627208Y1445288D1*
X1623405Y1454536D1*
X1620117Y1463978D1*
X1617352Y1473587D1*
X1615121Y1483334D1*
X1613429Y1493188D1*
X1612282Y1503121D1*
X1611682Y1513102D1*
X1611633Y1523101D1*
X1612133Y1533087D1*
X1613182Y1543030D1*
X1614777Y1552901D1*
X1616912Y1562669D1*
X1619581Y1572305D1*
X1622775Y1581780D1*
X1626486Y1591064D1*
X1630703Y1600131D1*
X1635411Y1608951D1*
X1640597Y1617500D1*
X1646246Y1625750D1*
X1652340Y1633677D1*
X1658861Y1641257D1*
X1665789Y1648467D1*
X1673103Y1655285D1*
X1680780Y1661690D1*
X1688799Y1667663D1*
X1697134Y1673186D1*
X1705760Y1678243D1*
X1714651Y1682817D1*
X1723780Y1686895D1*
X1733119Y1690465D1*
X1742641Y1693516D1*
X1752317Y1696039D1*
X1762116Y1698026D1*
X1772010Y1699470D1*
X1781968Y1700369D1*
X1791961Y1700718D1*
X1801957Y1700517D1*
X1811928Y1699767D1*
X1821842Y1698469D1*
X1831670Y1696628D1*
X1841382Y1694249D1*
X1850948Y1691340D1*
X1860339Y1687909D1*
X1869528Y1683966D1*
X1878486Y1679525D1*
X1887186Y1674597D1*
X1895602Y1669198D1*
X1903708Y1663344D1*
X1911480Y1657054D1*
X1918894Y1650345D1*
X1925929Y1643239D1*
X1932561Y1635757D1*
X1938772Y1627921D1*
X1944543Y1619756D1*
X1949855Y1611285D1*
X1954694Y1602535D1*
X1959044Y1593533D1*
X1962893Y1584304D1*
X1966228Y1574878D1*
X1969040Y1565283D1*
X1971319Y1555547D1*
X1971799Y1553034D1*
X1971800Y1959902D1*
X1969484Y1949458D1*
X1966767Y1939836D1*
X1963526Y1930377D1*
X1959769Y1921111D1*
X1955508Y1912066D1*
X1950756Y1903268D1*
X1945527Y1894746D1*
X1939837Y1886524D1*
X1933704Y1878627D1*
X1927146Y1871079D1*
X1920183Y1863904D1*
X1912835Y1857122D1*
X1905126Y1850755D1*
X1897078Y1844822D1*
X1888716Y1839340D1*
X1880065Y1834326D1*
X1871152Y1829796D1*
X1862002Y1825763D1*
X1852645Y1822239D1*
X1843108Y1819235D1*
X1833421Y1816760D1*
X1823611Y1814822D1*
X1813711Y1813427D1*
X1803748Y1812578D1*
X1793754Y1812278D1*
X1783758Y1812528D1*
X1773791Y1813328D1*
X1763884Y1814675D1*
X1754065Y1816564D1*
X1744365Y1818991D1*
X1734814Y1821947D1*
X1725439Y1825425D1*
X1716270Y1829413D1*
X1707334Y1833899D1*
X1698659Y1838870D1*
X1690270Y1844310D1*
X1682193Y1850204D1*
X1674452Y1856533D1*
X1667071Y1863278D1*
X1660072Y1870419D1*
X1653477Y1877933D1*
X1647304Y1885800D1*
X1641574Y1893994D1*
X1636304Y1902490D1*
X1631508Y1911264D1*
X1627202Y1920288D1*
X1623400Y1929536D1*
X1620111Y1938978D1*
X1617347Y1948587D1*
X1615116Y1958334D1*
X1613424Y1968188D1*
X1612276Y1978121D1*
X1611677Y1988102D1*
X1611628Y1998101D1*
X1612128Y2008087D1*
X1613177Y2018030D1*
X1614772Y2027901D1*
X1616906Y2037669D1*
X1619575Y2047305D1*
X1622770Y2056780D1*
X1626481Y2066064D1*
X1630697Y2075131D1*
X1635406Y2083951D1*
X1640592Y2092500D1*
X1646241Y2100750D1*
X1652335Y2108677D1*
X1658856Y2116257D1*
X1665783Y2123467D1*
X1673097Y2130285D1*
X1680775Y2136690D1*
X1688794Y2142663D1*
X1697128Y2148186D1*
X1705754Y2153243D1*
X1714645Y2157817D1*
X1723775Y2161895D1*
X1733114Y2165465D1*
X1742636Y2168516D1*
X1752311Y2171039D1*
X1762111Y2173026D1*
X1772005Y2174470D1*
X1781963Y2175369D1*
X1791956Y2175718D1*
X1801952Y2175517D1*
X1811923Y2174767D1*
X1821837Y2173469D1*
X1831665Y2171628D1*
X1841376Y2169249D1*
X1850943Y2166340D1*
X1860334Y2162909D1*
X1869523Y2158966D1*
X1878481Y2154525D1*
X1887181Y2149597D1*
X1895597Y2144198D1*
X1903703Y2138344D1*
X1911475Y2132054D1*
X1918889Y2125345D1*
X1925923Y2118239D1*
X1932556Y2110757D1*
X1938767Y2102921D1*
X1944537Y2094756D1*
X1949850Y2086285D1*
X1954689Y2077535D1*
X1959039Y2068533D1*
X1962888Y2059304D1*
X1966223Y2049878D1*
X1969034Y2040283D1*
X1971314Y2030547D1*
X1971801Y2027996D1*
X1971763Y2434163D1*
X1969580Y2424406D1*
X1966863Y2414783D1*
X1963621Y2405325D1*
X1959864Y2396059D1*
X1955603Y2387013D1*
X1950851Y2378216D1*
X1945623Y2369693D1*
X1939933Y2361471D1*
X1933800Y2353574D1*
X1927242Y2346027D1*
X1920279Y2338851D1*
X1912931Y2332070D1*
X1905222Y2325703D1*
X1897174Y2319769D1*
X1888812Y2314287D1*
X1880161Y2309274D1*
X1871247Y2304743D1*
X1862098Y2300710D1*
X1852741Y2297186D1*
X1843204Y2294183D1*
X1833516Y2291708D1*
X1823707Y2289770D1*
X1813806Y2288374D1*
X1803844Y2287525D1*
X1793850Y2287225D1*
X1783854Y2287476D1*
X1773887Y2288275D1*
X1763980Y2289622D1*
X1754161Y2291512D1*
X1744461Y2293938D1*
X1734910Y2296895D1*
X1725535Y2300372D1*
X1716366Y2304360D1*
X1707430Y2308846D1*
X1698755Y2313817D1*
X1690366Y2319258D1*
X1682288Y2325151D1*
X1674548Y2331480D1*
X1667167Y2338225D1*
X1660168Y2345366D1*
X1653572Y2352881D1*
X1647400Y2360747D1*
X1641670Y2368941D1*
X1636399Y2377438D1*
X1631604Y2386212D1*
X1627298Y2395236D1*
X1623495Y2404483D1*
X1620207Y2413926D1*
X1617443Y2423535D1*
X1615212Y2433281D1*
X1613520Y2443136D1*
X1612372Y2453069D1*
X1611773Y2463049D1*
X1611723Y2473048D1*
X1612224Y2483034D1*
X1613273Y2492978D1*
X1614867Y2502849D1*
X1617002Y2512617D1*
X1619671Y2522253D1*
X1622866Y2531727D1*
X1626577Y2541012D1*
X1630793Y2550078D1*
X1635502Y2558899D1*
X1640688Y2567447D1*
X1646337Y2575698D1*
X1652431Y2583625D1*
X1658951Y2591205D1*
X1665879Y2598414D1*
X1673193Y2605232D1*
X1680871Y2611637D1*
X1688889Y2617611D1*
X1697224Y2623134D1*
X1705850Y2628190D1*
X1714741Y2632764D1*
X1723870Y2636843D1*
X1733210Y2640413D1*
X1742732Y2643464D1*
X1752407Y2645986D1*
X1762207Y2647973D1*
X1772100Y2649418D1*
X1782059Y2650316D1*
X1792051Y2650665D1*
X1802048Y2650464D1*
X1812019Y2649714D1*
X1821933Y2648416D1*
X1831761Y2646575D1*
X1841472Y2644197D1*
X1851038Y2641287D1*
X1860430Y2637856D1*
X1869619Y2633914D1*
X1878577Y2629472D1*
X1887277Y2624544D1*
X1895693Y2619145D1*
X1903799Y2613292D1*
X1911571Y2607001D1*
X1918985Y2600293D1*
X1926019Y2593187D1*
X1932652Y2585704D1*
X1938863Y2577869D1*
X1944633Y2569703D1*
X1949946Y2561233D1*
X1954785Y2552483D1*
X1959135Y2543480D1*
X1962983Y2534252D1*
X1966319Y2524825D1*
X1969130Y2515230D1*
X1971410Y2505495D1*
X1971802Y2503442D1*
X1971800Y4539590D1*
X1713409Y4539594D1*
X1713338Y4242378D1*
X1712848Y4239279D1*
X1711878Y4236294D1*
X1710453Y4233497D1*
X1708608Y4230958D1*
X1706389Y4228739D1*
X1703850Y4226895D1*
X1701054Y4225470D1*
X1698069Y4224500D1*
X1694969Y4224009D1*
X1668400Y4223947D1*
X691831Y4224009D1*
X688731Y4224500D1*
X685746Y4225470D1*
X682950Y4226895D1*
X680411Y4228739D1*
X678192Y4230958D1*
X676347Y4233497D1*
X674922Y4236294D1*
X673952Y4239279D1*
X673462Y4242378D1*
X673400Y4268948D1*
Y4539592D1*
X415010Y4539594D1*
X415000Y2503537D1*
X417002Y2512617D1*
X419671Y2522253D1*
X422866Y2531727D1*
X426577Y2541012D1*
X430793Y2550078D1*
X435502Y2558899D1*
X440688Y2567447D1*
X446337Y2575698D1*
X452431Y2583625D1*
X458951Y2591205D1*
X465879Y2598414D1*
X473193Y2605232D1*
X480871Y2611637D1*
X488889Y2617611D1*
X497224Y2623134D1*
X505850Y2628190D1*
X514741Y2632764D1*
X523870Y2636843D1*
X533210Y2640413D1*
X542732Y2643464D1*
X552407Y2645986D1*
X562207Y2647973D1*
X572100Y2649418D1*
X582059Y2650316D1*
X592051Y2650665D1*
X602048Y2650464D1*
X612019Y2649714D1*
X621933Y2648416D1*
X631761Y2646575D1*
X641472Y2644197D1*
X651038Y2641287D1*
X660430Y2637856D1*
X669619Y2633914D1*
X678577Y2629472D1*
X687277Y2624544D1*
X695693Y2619145D1*
X703799Y2613292D1*
X711571Y2607001D1*
X718985Y2600293D1*
X726019Y2593187D1*
X732652Y2585704D1*
X738863Y2577869D1*
X744633Y2569703D1*
X749946Y2561233D1*
X754785Y2552483D1*
X759135Y2543480D1*
X762983Y2534252D1*
X766319Y2524825D1*
X769130Y2515230D1*
X771410Y2505495D1*
X773150Y2495649D1*
X774347Y2485722D1*
X774996Y2475744D1*
X775054Y2463948D1*
X774504Y2453965D1*
X773406Y2444026D1*
X771763Y2434163D1*
X769580Y2424406D1*
X766863Y2414783D1*
X763621Y2405325D1*
X759864Y2396059D1*
X755603Y2387013D1*
X750851Y2378216D1*
X745623Y2369693D1*
X739933Y2361471D1*
X733800Y2353574D1*
X727242Y2346027D1*
X720279Y2338851D1*
X712931Y2332070D1*
X705222Y2325703D1*
X697174Y2319769D1*
X688812Y2314287D1*
X680161Y2309274D1*
X671247Y2304743D1*
X662098Y2300710D1*
X652741Y2297186D1*
X643204Y2294183D1*
X633516Y2291708D1*
X623707Y2289770D1*
X613806Y2288374D1*
X603844Y2287525D1*
X593850Y2287225D1*
X583854Y2287476D1*
X573887Y2288275D1*
X563980Y2289622D1*
X554161Y2291512D1*
X544461Y2293938D1*
X534910Y2296895D1*
X525535Y2300372D1*
X516366Y2304360D1*
X507430Y2308846D1*
X498755Y2313817D1*
X490366Y2319258D1*
X482288Y2325151D1*
X474548Y2331480D1*
X467167Y2338225D1*
X460168Y2345366D1*
X453572Y2352881D1*
X447400Y2360747D1*
X441670Y2368941D1*
X436399Y2377438D1*
X431604Y2386212D1*
X427298Y2395236D1*
X423495Y2404483D1*
X420207Y2413926D1*
X417443Y2423535D1*
X415001Y2434414D1*
X415000Y2029045D1*
X416917Y2037669D1*
X419586Y2047305D1*
X422781Y2056780D1*
X426492Y2066064D1*
X430708Y2075131D1*
X435416Y2083951D1*
X440603Y2092500D1*
X446251Y2100750D1*
X452345Y2108677D1*
X458866Y2116257D1*
X465794Y2123467D1*
X473108Y2130285D1*
X480786Y2136690D1*
X488804Y2142663D1*
X497139Y2148186D1*
X505765Y2153243D1*
X514656Y2157817D1*
X523785Y2161895D1*
X533125Y2165465D1*
X542647Y2168516D1*
X552322Y2171039D1*
X562121Y2173026D1*
X572015Y2174470D1*
X581973Y2175369D1*
X591966Y2175718D1*
X601963Y2175517D1*
X611933Y2174767D1*
X621847Y2173469D1*
X631675Y2171628D1*
X641387Y2169249D1*
X650953Y2166340D1*
X660345Y2162909D1*
X669533Y2158966D1*
X678491Y2154525D1*
X687191Y2149597D1*
X695607Y2144198D1*
X703714Y2138344D1*
X711485Y2132054D1*
X718900Y2125345D1*
X725934Y2118239D1*
X732566Y2110757D1*
X738777Y2102921D1*
X744548Y2094756D1*
X749861Y2086285D1*
X754699Y2077535D1*
X759050Y2068533D1*
X762898Y2059304D1*
X766233Y2049878D1*
X769045Y2040283D1*
X771324Y2030547D1*
X773065Y2020701D1*
X774262Y2010774D1*
X774910Y2000797D1*
X774969Y1989001D1*
X774419Y1979017D1*
X773321Y1969079D1*
X771677Y1959216D1*
X769494Y1949458D1*
X766778Y1939836D1*
X763536Y1930377D1*
X759779Y1921111D1*
X755518Y1912066D1*
X750766Y1903268D1*
X745537Y1894746D1*
X739848Y1886524D1*
X733715Y1878627D1*
X727157Y1871079D1*
X720193Y1863904D1*
X712846Y1857122D1*
X705136Y1850755D1*
X697089Y1844822D1*
X688727Y1839340D1*
X680076Y1834326D1*
X671162Y1829796D1*
X662013Y1825763D1*
X652656Y1822239D1*
X643119Y1819235D1*
X633431Y1816760D1*
X623622Y1814822D1*
X613721Y1813427D1*
X603759Y1812578D1*
X593764Y1812278D1*
X583769Y1812528D1*
X573802Y1813328D1*
X563894Y1814675D1*
X554076Y1816564D1*
X544376Y1818991D1*
X534824Y1821947D1*
X525450Y1825425D1*
X516281Y1829413D1*
X507345Y1833899D1*
X498669Y1838870D1*
X490280Y1844310D1*
X482203Y1850204D1*
X474462Y1856533D1*
X467081Y1863278D1*
X460083Y1870419D1*
X453487Y1877933D1*
X447315Y1885800D1*
X441585Y1893994D1*
X436314Y1902490D1*
X431519Y1911264D1*
X427213Y1920288D1*
X423410Y1929536D1*
X420122Y1938978D1*
X417358Y1948587D1*
X415000Y1958948D1*
Y1554045D1*
X416912Y1562669D1*
X419581Y1572305D1*
X422775Y1581780D1*
X426486Y1591064D1*
X430703Y1600131D1*
X435411Y1608951D1*
X440597Y1617500D1*
X446246Y1625750D1*
X452340Y1633677D1*
X458861Y1641257D1*
X465789Y1648467D1*
X473103Y1655285D1*
X480780Y1661690D1*
X488799Y1667663D1*
X497134Y1673186D1*
X505760Y1678243D1*
X514651Y1682817D1*
X523780Y1686895D1*
X533119Y1690465D1*
X542641Y1693516D1*
X552317Y1696039D1*
X562116Y1698026D1*
X572010Y1699470D1*
X581968Y1700369D1*
X591961Y1700718D1*
X601957Y1700517D1*
X611928Y1699767D1*
X621842Y1698469D1*
X631670Y1696628D1*
X641382Y1694249D1*
X650948Y1691340D1*
X660339Y1687909D1*
X669528Y1683966D1*
X678486Y1679525D1*
X687186Y1674597D1*
X695602Y1669198D1*
X703708Y1663344D1*
X711480Y1657054D1*
X718894Y1650345D1*
X725929Y1643239D1*
X732561Y1635757D1*
X738772Y1627921D1*
X744543Y1619756D1*
X749855Y1611285D1*
X754694Y1602535D1*
X759044Y1593533D1*
X762893Y1584304D1*
X766228Y1574878D1*
X769040Y1565283D1*
X771319Y1555547D1*
X773060Y1545701D1*
X774256Y1535774D1*
X774905Y1525797D1*
X774964Y1514001D1*
X774414Y1504017D1*
X773315Y1494079D1*
X771672Y1484216D1*
X769489Y1474458D1*
X766773Y1464836D1*
X763531Y1455377D1*
X759774Y1446111D1*
X755513Y1437066D1*
X750761Y1428268D1*
X745532Y1419746D1*
X739843Y1411524D1*
X733710Y1403627D1*
X727151Y1396079D1*
X720188Y1388904D1*
X712841Y1382122D1*
X705131Y1375755D1*
X697083Y1369822D1*
X688721Y1364340D1*
X680070Y1359326D1*
X671157Y1354796D1*
X662008Y1350763D1*
X652650Y1347239D1*
X643113Y1344235D1*
X633426Y1341760D1*
X623617Y1339822D1*
X613716Y1338427D1*
X603753Y1337578D1*
X593759Y1337278D1*
X583763Y1337528D1*
X573797Y1338328D1*
X563889Y1339675D1*
X554071Y1341564D1*
X544371Y1343991D1*
X534819Y1346947D1*
X525445Y1350425D1*
X516276Y1354413D1*
X507340Y1358899D1*
X498664Y1363870D1*
X490275Y1369310D1*
X482198Y1375204D1*
X474457Y1381533D1*
X467076Y1388278D1*
X460077Y1395419D1*
X453482Y1402933D1*
X447310Y1410800D1*
X441580Y1418994D1*
X436309Y1427490D1*
X431513Y1436264D1*
X427208Y1445288D1*
X423405Y1454536D1*
X420117Y1463978D1*
X417352Y1473587D1*
X415003Y1483968D1*
X415000Y1079045D1*
X416912Y1087669D1*
X419581Y1097305D1*
X422775Y1106780D1*
X426486Y1116064D1*
X430703Y1125131D1*
X435411Y1133951D1*
X440597Y1142500D1*
X446246Y1150750D1*
X452340Y1158677D1*
X458861Y1166257D1*
X465789Y1173467D1*
X473103Y1180285D1*
X480780Y1186690D1*
X488799Y1192663D1*
X497134Y1198186D1*
X505760Y1203243D1*
X514651Y1207817D1*
X523780Y1211895D1*
X533119Y1215465D1*
X542641Y1218516D1*
X552317Y1221039D1*
X562116Y1223026D1*
X572010Y1224470D1*
X581968Y1225369D1*
X591961Y1225718D1*
X601957Y1225517D1*
X611928Y1224767D1*
X621842Y1223469D1*
X631670Y1221628D1*
X641382Y1219249D1*
X650948Y1216340D1*
X660339Y1212909D1*
X669528Y1208966D1*
X678486Y1204525D1*
X687186Y1199597D1*
X695602Y1194198D1*
X703708Y1188344D1*
X711480Y1182054D1*
X718894Y1175345D1*
X725929Y1168239D1*
X732561Y1160757D1*
X738772Y1152921D1*
X744543Y1144756D1*
X749855Y1136285D1*
X754694Y1127535D1*
X759044Y1118533D1*
X762893Y1109304D1*
X766228Y1099878D1*
X769040Y1090283D1*
X771319Y1080547D1*
X773060Y1070701D1*
X774256Y1060774D1*
X774905Y1050797D1*
X774964Y1039001D1*
X1174964D2*
X1174414Y1029017D1*
X1173315Y1019079D1*
X1171672Y1009216D1*
X1169489Y999458D1*
X1166773Y989836D1*
X1163531Y980377D1*
X1159774Y971111D1*
X1155513Y962066D1*
X1150761Y953268D1*
X1145532Y944746D1*
X1139843Y936524D1*
X1133710Y928627D1*
X1127151Y921079D1*
X1120188Y913904D1*
X1112841Y907122D1*
X1105131Y900755D1*
X1097083Y894822D1*
X1088721Y889340D1*
X1080070Y884326D1*
X1071157Y879796D1*
X1062008Y875763D1*
X1052650Y872239D1*
X1043113Y869235D1*
X1033426Y866760D1*
X1023617Y864822D1*
X1013716Y863427D1*
X1003753Y862578D1*
X993759Y862278D1*
X983763Y862528D1*
X973797Y863328D1*
X963889Y864675D1*
X954071Y866564D1*
X944371Y868991D1*
X934819Y871947D1*
X925445Y875425D1*
X916276Y879413D1*
X907340Y883899D1*
X898664Y888870D1*
X890275Y894310D1*
X882198Y900204D1*
X874457Y906533D1*
X867076Y913278D1*
X860077Y920419D1*
X853482Y927933D1*
X847310Y935800D1*
X841580Y943994D1*
X836309Y952490D1*
X831513Y961264D1*
X827208Y970288D1*
X823405Y979536D1*
X820117Y988978D1*
X817352Y998587D1*
X815121Y1008334D1*
X813429Y1018188D1*
X812282Y1028121D1*
X811682Y1038102D1*
X811633Y1048101D1*
X812133Y1058087D1*
X813182Y1068030D1*
X814777Y1077901D1*
X816912Y1087669D1*
X819581Y1097305D1*
X822775Y1106780D1*
X826486Y1116064D1*
X830703Y1125131D1*
X835411Y1133951D1*
X840597Y1142500D1*
X846246Y1150750D1*
X852340Y1158677D1*
X858861Y1166257D1*
X865789Y1173467D1*
X873103Y1180285D1*
X880780Y1186690D1*
X888799Y1192663D1*
X897134Y1198186D1*
X905760Y1203243D1*
X914651Y1207817D1*
X923780Y1211895D1*
X933119Y1215465D1*
X942641Y1218516D1*
X952317Y1221039D1*
X962116Y1223026D1*
X972010Y1224470D1*
X981968Y1225369D1*
X991961Y1225718D1*
X1001957Y1225517D1*
X1011928Y1224767D1*
X1021842Y1223469D1*
X1031670Y1221628D1*
X1041382Y1219249D1*
X1050948Y1216340D1*
X1060339Y1212909D1*
X1069528Y1208966D1*
X1078486Y1204525D1*
X1087186Y1199597D1*
X1095602Y1194198D1*
X1103708Y1188344D1*
X1111480Y1182054D1*
X1118894Y1175345D1*
X1125929Y1168239D1*
X1132561Y1160757D1*
X1138772Y1152921D1*
X1144543Y1144756D1*
X1149855Y1136285D1*
X1154694Y1127535D1*
X1159044Y1118533D1*
X1162893Y1109304D1*
X1166228Y1099878D1*
X1169040Y1090283D1*
X1171319Y1080547D1*
X1173060Y1070701D1*
X1174256Y1060774D1*
X1174905Y1050797D1*
X1174964Y1039001D1*
X1574965Y1514001D2*
X1574415Y1504017D1*
X1573317Y1494079D1*
X1571673Y1484216D1*
X1569490Y1474458D1*
X1566774Y1464836D1*
X1563532Y1455377D1*
X1559775Y1446111D1*
X1555514Y1437066D1*
X1550762Y1428268D1*
X1545534Y1419746D1*
X1539844Y1411524D1*
X1533711Y1403627D1*
X1527153Y1396079D1*
X1520189Y1388904D1*
X1512842Y1382122D1*
X1505133Y1375755D1*
X1497085Y1369822D1*
X1488723Y1364340D1*
X1480072Y1359326D1*
X1471158Y1354796D1*
X1462009Y1350763D1*
X1452652Y1347239D1*
X1443115Y1344235D1*
X1433427Y1341760D1*
X1423618Y1339822D1*
X1413717Y1338427D1*
X1403755Y1337578D1*
X1393760Y1337278D1*
X1383765Y1337528D1*
X1373798Y1338328D1*
X1363890Y1339675D1*
X1354072Y1341564D1*
X1344372Y1343991D1*
X1334820Y1346947D1*
X1325446Y1350425D1*
X1316277Y1354413D1*
X1307341Y1358899D1*
X1298665Y1363870D1*
X1290276Y1369310D1*
X1282199Y1375204D1*
X1274458Y1381533D1*
X1267077Y1388278D1*
X1260079Y1395419D1*
X1253483Y1402933D1*
X1247311Y1410800D1*
X1241581Y1418994D1*
X1236310Y1427490D1*
X1231515Y1436264D1*
X1227209Y1445288D1*
X1223406Y1454536D1*
X1220118Y1463978D1*
X1217354Y1473587D1*
X1215122Y1483334D1*
X1213430Y1493188D1*
X1212283Y1503121D1*
X1211684Y1513102D1*
X1211634Y1523101D1*
X1212135Y1533087D1*
X1213184Y1543030D1*
X1214778Y1552901D1*
X1216913Y1562669D1*
X1219582Y1572305D1*
X1222777Y1581780D1*
X1226488Y1591064D1*
X1230704Y1600131D1*
X1235412Y1608951D1*
X1240599Y1617500D1*
X1246248Y1625750D1*
X1252341Y1633677D1*
X1258862Y1641257D1*
X1265790Y1648467D1*
X1273104Y1655285D1*
X1280782Y1661690D1*
X1288800Y1667663D1*
X1297135Y1673186D1*
X1305761Y1678243D1*
X1314652Y1682817D1*
X1323781Y1686895D1*
X1333121Y1690465D1*
X1342643Y1693516D1*
X1352318Y1696039D1*
X1362117Y1698026D1*
X1372011Y1699470D1*
X1381969Y1700369D1*
X1391962Y1700718D1*
X1401959Y1700517D1*
X1411929Y1699767D1*
X1421844Y1698469D1*
X1431671Y1696628D1*
X1441383Y1694249D1*
X1450949Y1691340D1*
X1460341Y1687909D1*
X1469529Y1683966D1*
X1478487Y1679525D1*
X1487187Y1674597D1*
X1495603Y1669198D1*
X1503710Y1663344D1*
X1511482Y1657054D1*
X1518896Y1650345D1*
X1525930Y1643239D1*
X1532562Y1635757D1*
X1538773Y1627921D1*
X1544544Y1619756D1*
X1549857Y1611285D1*
X1554696Y1602535D1*
X1559046Y1593533D1*
X1562894Y1584304D1*
X1566229Y1574878D1*
X1569041Y1565283D1*
X1571321Y1555547D1*
X1573061Y1545701D1*
X1574258Y1535774D1*
X1574906Y1525797D1*
X1574965Y1514001D1*
X1174964D2*
X1174414Y1504017D1*
X1173315Y1494079D1*
X1171672Y1484216D1*
X1169489Y1474458D1*
X1166773Y1464836D1*
X1163531Y1455377D1*
X1159774Y1446111D1*
X1155513Y1437066D1*
X1150761Y1428268D1*
X1145532Y1419746D1*
X1139843Y1411524D1*
X1133710Y1403627D1*
X1127151Y1396079D1*
X1120188Y1388904D1*
X1112841Y1382122D1*
X1105131Y1375755D1*
X1097083Y1369822D1*
X1088721Y1364340D1*
X1080070Y1359326D1*
X1071157Y1354796D1*
X1062008Y1350763D1*
X1052650Y1347239D1*
X1043113Y1344235D1*
X1033426Y1341760D1*
X1023617Y1339822D1*
X1013716Y1338427D1*
X1003753Y1337578D1*
X993759Y1337278D1*
X983763Y1337528D1*
X973797Y1338328D1*
X963889Y1339675D1*
X954071Y1341564D1*
X944371Y1343991D1*
X934819Y1346947D1*
X925445Y1350425D1*
X916276Y1354413D1*
X907340Y1358899D1*
X898664Y1363870D1*
X890275Y1369310D1*
X882198Y1375204D1*
X874457Y1381533D1*
X867076Y1388278D1*
X860077Y1395419D1*
X853482Y1402933D1*
X847310Y1410800D1*
X841580Y1418994D1*
X836309Y1427490D1*
X831513Y1436264D1*
X827208Y1445288D1*
X823405Y1454536D1*
X820117Y1463978D1*
X817352Y1473587D1*
X815121Y1483334D1*
X813429Y1493188D1*
X812282Y1503121D1*
X811682Y1513102D1*
X811633Y1523101D1*
X812133Y1533087D1*
X813182Y1543030D1*
X814777Y1552901D1*
X816912Y1562669D1*
X819581Y1572305D1*
X822775Y1581780D1*
X826486Y1591064D1*
X830703Y1600131D1*
X835411Y1608951D1*
X840597Y1617500D1*
X846246Y1625750D1*
X852340Y1633677D1*
X858861Y1641257D1*
X865789Y1648467D1*
X873103Y1655285D1*
X880780Y1661690D1*
X888799Y1667663D1*
X897134Y1673186D1*
X905760Y1678243D1*
X914651Y1682817D1*
X923780Y1686895D1*
X933119Y1690465D1*
X942641Y1693516D1*
X952317Y1696039D1*
X962116Y1698026D1*
X972010Y1699470D1*
X981968Y1700369D1*
X991961Y1700718D1*
X1001957Y1700517D1*
X1011928Y1699767D1*
X1021842Y1698469D1*
X1031670Y1696628D1*
X1041382Y1694249D1*
X1050948Y1691340D1*
X1060339Y1687909D1*
X1069528Y1683966D1*
X1078486Y1679525D1*
X1087186Y1674597D1*
X1095602Y1669198D1*
X1103708Y1663344D1*
X1111480Y1657054D1*
X1118894Y1650345D1*
X1125929Y1643239D1*
X1132561Y1635757D1*
X1138772Y1627921D1*
X1144543Y1619756D1*
X1149855Y1611285D1*
X1154694Y1602535D1*
X1159044Y1593533D1*
X1162893Y1584304D1*
X1166228Y1574878D1*
X1169040Y1565283D1*
X1171319Y1555547D1*
X1173060Y1545701D1*
X1174256Y1535774D1*
X1174905Y1525797D1*
X1174964Y1514001D1*
X575011Y5249342D2*
X568935Y5253701D1*
X561362Y5260225D1*
X554457Y5267453D1*
X548285Y5275316D1*
X542905Y5283741D1*
X538367Y5292647D1*
X534713Y5301952D1*
X531980Y5311567D1*
X530191Y5321402D1*
X529364Y5331363D1*
X529506Y5341359D1*
X530617Y5351293D1*
X532686Y5361072D1*
X535694Y5370605D1*
X539611Y5379802D1*
X544402Y5388575D1*
X550020Y5396843D1*
X556414Y5404526D1*
X563523Y5411554D1*
X571279Y5417860D1*
X579610Y5423384D1*
X588438Y5428074D1*
X590421Y5428949D1*
X414984Y5428947D1*
X415000Y5249319D1*
X574959Y5249336D1*
X857194Y5329894D2*
X856225Y5319945D1*
X854296Y5310137D1*
X851425Y5300562D1*
X847639Y5291311D1*
X842975Y5282470D1*
X837475Y5274123D1*
X831191Y5266349D1*
X824184Y5259220D1*
X816518Y5252804D1*
X811625Y5249341D1*
X1574959Y5249336D1*
X1568935Y5253701D1*
X1561362Y5260225D1*
X1554457Y5267453D1*
X1548285Y5275316D1*
X1542905Y5283741D1*
X1538367Y5292647D1*
X1534713Y5301952D1*
X1531980Y5311567D1*
X1530191Y5321402D1*
X1529364Y5331363D1*
X1529506Y5341359D1*
X1530617Y5351293D1*
X1532686Y5361072D1*
X1535694Y5370605D1*
X1539611Y5379802D1*
X1544402Y5388575D1*
X1550020Y5396843D1*
X1556414Y5404526D1*
X1563523Y5411554D1*
X1571279Y5417860D1*
X1579610Y5423384D1*
X1588438Y5428074D1*
X1590421Y5428949D1*
X796273Y5428947D1*
X802131Y5426111D1*
X810750Y5421047D1*
X818837Y5415171D1*
X826316Y5408540D1*
X833117Y5401214D1*
X839176Y5393263D1*
X844435Y5384763D1*
X848846Y5375792D1*
X852366Y5366436D1*
X854962Y5356783D1*
X856610Y5346924D1*
X857295Y5336951D1*
X857194Y5329894D1*
X1857194D2*
X1856225Y5319945D1*
X1854296Y5310137D1*
X1851425Y5300562D1*
X1847639Y5291311D1*
X1842975Y5282470D1*
X1837475Y5274123D1*
X1831191Y5266349D1*
X1824184Y5259220D1*
X1816518Y5252804D1*
X1811625Y5249341D1*
X1971795Y5249336D1*
X1971800Y5428965D1*
X1796273Y5428947D1*
X1802131Y5426111D1*
X1810750Y5421047D1*
X1818837Y5415171D1*
X1826316Y5408540D1*
X1833117Y5401214D1*
X1839176Y5393263D1*
X1844435Y5384763D1*
X1848846Y5375792D1*
X1852366Y5366436D1*
X1854962Y5356783D1*
X1856610Y5346924D1*
X1857295Y5336951D1*
X1857194Y5329894D1*
X1575054Y1988948D2*
X1574504Y1978965D1*
X1573406Y1969026D1*
X1571763Y1959163D1*
X1569580Y1949406D1*
X1566863Y1939783D1*
X1563621Y1930325D1*
X1559864Y1921059D1*
X1555603Y1912013D1*
X1550851Y1903216D1*
X1545623Y1894693D1*
X1539933Y1886471D1*
X1533800Y1878574D1*
X1527242Y1871027D1*
X1520279Y1863851D1*
X1512931Y1857070D1*
X1505222Y1850703D1*
X1497174Y1844769D1*
X1488812Y1839287D1*
X1480161Y1834274D1*
X1471247Y1829743D1*
X1462098Y1825710D1*
X1452741Y1822186D1*
X1443204Y1819183D1*
X1433516Y1816708D1*
X1423707Y1814770D1*
X1413806Y1813374D1*
X1403844Y1812525D1*
X1393850Y1812225D1*
X1383854Y1812476D1*
X1373887Y1813275D1*
X1363980Y1814622D1*
X1354161Y1816512D1*
X1344461Y1818938D1*
X1334910Y1821895D1*
X1325535Y1825372D1*
X1316366Y1829360D1*
X1307430Y1833846D1*
X1298755Y1838817D1*
X1290366Y1844258D1*
X1282288Y1850151D1*
X1274548Y1856480D1*
X1267167Y1863225D1*
X1260168Y1870366D1*
X1253572Y1877881D1*
X1247400Y1885747D1*
X1241670Y1893941D1*
X1236399Y1902438D1*
X1231604Y1911212D1*
X1227298Y1920236D1*
X1223495Y1929483D1*
X1220207Y1938926D1*
X1217443Y1948535D1*
X1215212Y1958281D1*
X1213520Y1968136D1*
X1212372Y1978069D1*
X1211773Y1988049D1*
X1211723Y1998048D1*
X1212224Y2008034D1*
X1213273Y2017978D1*
X1214867Y2027849D1*
X1217002Y2037617D1*
X1219671Y2047253D1*
X1222866Y2056727D1*
X1226577Y2066012D1*
X1230793Y2075078D1*
X1235502Y2083899D1*
X1240688Y2092447D1*
X1246337Y2100698D1*
X1252431Y2108625D1*
X1258951Y2116205D1*
X1265879Y2123414D1*
X1273193Y2130232D1*
X1280871Y2136637D1*
X1288889Y2142611D1*
X1297224Y2148134D1*
X1305850Y2153190D1*
X1314741Y2157764D1*
X1323870Y2161843D1*
X1333210Y2165413D1*
X1342732Y2168464D1*
X1352407Y2170986D1*
X1362207Y2172973D1*
X1372100Y2174418D1*
X1382059Y2175316D1*
X1392051Y2175665D1*
X1402048Y2175464D1*
X1412019Y2174714D1*
X1421933Y2173416D1*
X1431761Y2171575D1*
X1441472Y2169197D1*
X1451038Y2166287D1*
X1460430Y2162856D1*
X1469619Y2158914D1*
X1478577Y2154472D1*
X1487277Y2149544D1*
X1495693Y2144145D1*
X1503799Y2138292D1*
X1511571Y2132001D1*
X1518985Y2125293D1*
X1526019Y2118187D1*
X1532652Y2110704D1*
X1538863Y2102869D1*
X1544633Y2094703D1*
X1549946Y2086233D1*
X1554785Y2077483D1*
X1559135Y2068480D1*
X1562983Y2059252D1*
X1566319Y2049825D1*
X1569130Y2040230D1*
X1571410Y2030495D1*
X1573150Y2020649D1*
X1574347Y2010722D1*
X1574996Y2000744D1*
X1575054Y1988948D1*
X1175054D2*
X1174504Y1978965D1*
X1173406Y1969026D1*
X1171763Y1959163D1*
X1169580Y1949406D1*
X1166863Y1939783D1*
X1163621Y1930325D1*
X1159864Y1921059D1*
X1155603Y1912013D1*
X1150851Y1903216D1*
X1145623Y1894693D1*
X1139933Y1886471D1*
X1133800Y1878574D1*
X1127242Y1871027D1*
X1120279Y1863851D1*
X1112931Y1857070D1*
X1105222Y1850703D1*
X1097174Y1844769D1*
X1088812Y1839287D1*
X1080161Y1834274D1*
X1071247Y1829743D1*
X1062098Y1825710D1*
X1052741Y1822186D1*
X1043204Y1819183D1*
X1033516Y1816708D1*
X1023707Y1814770D1*
X1013806Y1813374D1*
X1003844Y1812525D1*
X993850Y1812225D1*
X983854Y1812476D1*
X973887Y1813275D1*
X963980Y1814622D1*
X954161Y1816512D1*
X944461Y1818938D1*
X934910Y1821895D1*
X925535Y1825372D1*
X916366Y1829360D1*
X907430Y1833846D1*
X898755Y1838817D1*
X890366Y1844258D1*
X882288Y1850151D1*
X874548Y1856480D1*
X867167Y1863225D1*
X860168Y1870366D1*
X853572Y1877881D1*
X847400Y1885747D1*
X841670Y1893941D1*
X836399Y1902438D1*
X831604Y1911212D1*
X827298Y1920236D1*
X823495Y1929483D1*
X820207Y1938926D1*
X817443Y1948535D1*
X815212Y1958281D1*
X813520Y1968136D1*
X812372Y1978069D1*
X811773Y1988049D1*
X811723Y1998048D1*
X812224Y2008034D1*
X813273Y2017978D1*
X814867Y2027849D1*
X817002Y2037617D1*
X819671Y2047253D1*
X822866Y2056727D1*
X826577Y2066012D1*
X830793Y2075078D1*
X835502Y2083899D1*
X840688Y2092447D1*
X846337Y2100698D1*
X852431Y2108625D1*
X858951Y2116205D1*
X865879Y2123414D1*
X873193Y2130232D1*
X880871Y2136637D1*
X888889Y2142611D1*
X897224Y2148134D1*
X905850Y2153190D1*
X914741Y2157764D1*
X923870Y2161843D1*
X933210Y2165413D1*
X942732Y2168464D1*
X952407Y2170986D1*
X962207Y2172973D1*
X972100Y2174418D1*
X982059Y2175316D1*
X992051Y2175665D1*
X1002048Y2175464D1*
X1012019Y2174714D1*
X1021933Y2173416D1*
X1031761Y2171575D1*
X1041472Y2169197D1*
X1051038Y2166287D1*
X1060430Y2162856D1*
X1069619Y2158914D1*
X1078577Y2154472D1*
X1087277Y2149544D1*
X1095693Y2144145D1*
X1103799Y2138292D1*
X1111571Y2132001D1*
X1118985Y2125293D1*
X1126019Y2118187D1*
X1132652Y2110704D1*
X1138863Y2102869D1*
X1144633Y2094703D1*
X1149946Y2086233D1*
X1154785Y2077483D1*
X1159135Y2068480D1*
X1162983Y2059252D1*
X1166319Y2049825D1*
X1169130Y2040230D1*
X1171410Y2030495D1*
X1173150Y2020649D1*
X1174347Y2010722D1*
X1174996Y2000744D1*
X1175054Y1988948D1*
Y2463948D2*
X1174504Y2453965D1*
X1173406Y2444026D1*
X1171763Y2434163D1*
X1169580Y2424406D1*
X1166863Y2414783D1*
X1163621Y2405325D1*
X1159864Y2396059D1*
X1155603Y2387013D1*
X1150851Y2378216D1*
X1145623Y2369693D1*
X1139933Y2361471D1*
X1133800Y2353574D1*
X1127242Y2346027D1*
X1120279Y2338851D1*
X1112931Y2332070D1*
X1105222Y2325703D1*
X1097174Y2319769D1*
X1088812Y2314287D1*
X1080161Y2309274D1*
X1071247Y2304743D1*
X1062098Y2300710D1*
X1052741Y2297186D1*
X1043204Y2294183D1*
X1033516Y2291708D1*
X1023707Y2289770D1*
X1013806Y2288374D1*
X1003844Y2287525D1*
X993850Y2287225D1*
X983854Y2287476D1*
X973887Y2288275D1*
X963980Y2289622D1*
X954161Y2291512D1*
X944461Y2293938D1*
X934910Y2296895D1*
X925535Y2300372D1*
X916366Y2304360D1*
X907430Y2308846D1*
X898755Y2313817D1*
X890366Y2319258D1*
X882288Y2325151D1*
X874548Y2331480D1*
X867167Y2338225D1*
X860168Y2345366D1*
X853572Y2352881D1*
X847400Y2360747D1*
X841670Y2368941D1*
X836399Y2377438D1*
X831604Y2386212D1*
X827298Y2395236D1*
X823495Y2404483D1*
X820207Y2413926D1*
X817443Y2423535D1*
X815212Y2433281D1*
X813520Y2443136D1*
X812372Y2453069D1*
X811773Y2463049D1*
X811723Y2473048D1*
X812224Y2483034D1*
X813273Y2492978D1*
X814867Y2502849D1*
X817002Y2512617D1*
X819671Y2522253D1*
X822866Y2531727D1*
X826577Y2541012D1*
X830793Y2550078D1*
X835502Y2558899D1*
X840688Y2567447D1*
X846337Y2575698D1*
X852431Y2583625D1*
X858951Y2591205D1*
X865879Y2598414D1*
X873193Y2605232D1*
X880871Y2611637D1*
X888889Y2617611D1*
X897224Y2623134D1*
X905850Y2628190D1*
X914741Y2632764D1*
X923870Y2636843D1*
X933210Y2640413D1*
X942732Y2643464D1*
X952407Y2645986D1*
X962207Y2647973D1*
X972100Y2649418D1*
X982059Y2650316D1*
X992051Y2650665D1*
X1002048Y2650464D1*
X1012019Y2649714D1*
X1021933Y2648416D1*
X1031761Y2646575D1*
X1041472Y2644197D1*
X1051038Y2641287D1*
X1060430Y2637856D1*
X1069619Y2633914D1*
X1078577Y2629472D1*
X1087277Y2624544D1*
X1095693Y2619145D1*
X1103799Y2613292D1*
X1111571Y2607001D1*
X1118985Y2600293D1*
X1126019Y2593187D1*
X1132652Y2585704D1*
X1138863Y2577869D1*
X1144633Y2569703D1*
X1149946Y2561233D1*
X1154785Y2552483D1*
X1159135Y2543480D1*
X1162983Y2534252D1*
X1166319Y2524825D1*
X1169130Y2515230D1*
X1171410Y2505495D1*
X1173150Y2495649D1*
X1174347Y2485722D1*
X1174996Y2475744D1*
X1175054Y2463948D1*
X822355Y3293749D2*
X821805Y3283765D1*
X820706Y3273827D1*
X819063Y3263964D1*
X816880Y3254207D1*
X814164Y3244584D1*
X810922Y3235125D1*
X807165Y3225859D1*
X802904Y3216814D1*
X798152Y3208016D1*
X792923Y3199494D1*
X787234Y3191272D1*
X781101Y3183375D1*
X774542Y3175827D1*
X767579Y3168652D1*
X760232Y3161870D1*
X752522Y3155503D1*
X744474Y3149570D1*
X736112Y3144088D1*
X727461Y3139074D1*
X718548Y3134544D1*
X709399Y3130511D1*
X700041Y3126987D1*
X690505Y3123983D1*
X680817Y3121508D1*
X671008Y3119570D1*
X661107Y3118175D1*
X651144Y3117326D1*
X641150Y3117026D1*
X631154Y3117276D1*
X621188Y3118076D1*
X611280Y3119423D1*
X601462Y3121312D1*
X591762Y3123739D1*
X582210Y3126696D1*
X572836Y3130173D1*
X563667Y3134161D1*
X554731Y3138647D1*
X546055Y3143618D1*
X537666Y3149058D1*
X529589Y3154952D1*
X521848Y3161281D1*
X514467Y3168026D1*
X507468Y3175167D1*
X500873Y3182682D1*
X494701Y3190548D1*
X488971Y3198742D1*
X483700Y3207239D1*
X478904Y3216012D1*
X474599Y3225036D1*
X470796Y3234284D1*
X467508Y3243726D1*
X464743Y3253335D1*
X462512Y3263082D1*
X460820Y3272936D1*
X459673Y3282869D1*
X459073Y3292850D1*
X459024Y3302849D1*
X459524Y3312835D1*
X460574Y3322778D1*
X462168Y3332649D1*
X464303Y3342417D1*
X466972Y3352053D1*
X470166Y3361528D1*
X473878Y3370812D1*
X478094Y3379879D1*
X482802Y3388699D1*
X487989Y3397248D1*
X493637Y3405498D1*
X499731Y3413425D1*
X506252Y3421005D1*
X513180Y3428215D1*
X520494Y3435033D1*
X528171Y3441438D1*
X536190Y3447411D1*
X544525Y3452934D1*
X553151Y3457991D1*
X562042Y3462565D1*
X571171Y3466643D1*
X580511Y3470213D1*
X590032Y3473264D1*
X599708Y3475787D1*
X609507Y3477774D1*
X619401Y3479218D1*
X629359Y3480117D1*
X639352Y3480466D1*
X649349Y3480265D1*
X659319Y3479515D1*
X669233Y3478217D1*
X679061Y3476376D1*
X688773Y3473997D1*
X698339Y3471088D1*
X707730Y3467657D1*
X716919Y3463714D1*
X725877Y3459273D1*
X734577Y3454345D1*
X742993Y3448946D1*
X751099Y3443092D1*
X758871Y3436802D1*
X766286Y3430093D1*
X773320Y3422987D1*
X779952Y3415505D1*
X786163Y3407669D1*
X791934Y3399504D1*
X797246Y3391033D1*
X802085Y3382283D1*
X806436Y3373281D1*
X810284Y3364052D1*
X813619Y3354626D1*
X816431Y3345031D1*
X818710Y3335295D1*
X820451Y3325449D1*
X821648Y3315522D1*
X822296Y3305545D1*
X822355Y3293749D1*
Y2891048D2*
X821805Y2881064D1*
X820706Y2871126D1*
X819063Y2861263D1*
X816880Y2851506D1*
X814164Y2841883D1*
X810922Y2832424D1*
X807165Y2823158D1*
X802904Y2814113D1*
X798152Y2805316D1*
X792923Y2796793D1*
X787234Y2788571D1*
X781101Y2780674D1*
X774542Y2773126D1*
X767579Y2765951D1*
X760232Y2759170D1*
X752522Y2752802D1*
X744474Y2746869D1*
X736112Y2741387D1*
X727461Y2736373D1*
X718548Y2731843D1*
X709399Y2727810D1*
X700041Y2724286D1*
X690505Y2721282D1*
X680817Y2718808D1*
X671008Y2716870D1*
X661107Y2715474D1*
X651144Y2714625D1*
X641150Y2714325D1*
X631154Y2714575D1*
X621188Y2715375D1*
X611280Y2716722D1*
X601462Y2718611D1*
X591762Y2721038D1*
X582210Y2723995D1*
X572836Y2727472D1*
X563667Y2731460D1*
X554731Y2735946D1*
X546055Y2740917D1*
X537666Y2746357D1*
X529589Y2752251D1*
X521848Y2758580D1*
X514467Y2765325D1*
X507468Y2772466D1*
X500873Y2779981D1*
X494701Y2787847D1*
X488971Y2796041D1*
X483700Y2804538D1*
X478904Y2813311D1*
X474599Y2822336D1*
X470796Y2831583D1*
X467508Y2841026D1*
X464743Y2850635D1*
X462512Y2860381D1*
X460820Y2870236D1*
X459673Y2880168D1*
X459073Y2890149D1*
X459024Y2900148D1*
X459524Y2910134D1*
X460574Y2920078D1*
X462168Y2929948D1*
X464303Y2939717D1*
X466972Y2949352D1*
X470166Y2958827D1*
X473878Y2968112D1*
X478094Y2977178D1*
X482802Y2985999D1*
X487989Y2994547D1*
X493637Y3002797D1*
X499731Y3010724D1*
X506252Y3018304D1*
X513180Y3025514D1*
X520494Y3032332D1*
X528171Y3038737D1*
X536190Y3044710D1*
X544525Y3050233D1*
X553151Y3055290D1*
X562042Y3059864D1*
X571171Y3063942D1*
X580511Y3067513D1*
X590032Y3070564D1*
X599708Y3073086D1*
X609507Y3075073D1*
X619401Y3076518D1*
X629359Y3077416D1*
X639352Y3077765D1*
X649349Y3077564D1*
X659319Y3076814D1*
X669233Y3075516D1*
X679061Y3073675D1*
X688773Y3071296D1*
X698339Y3068387D1*
X707730Y3064956D1*
X716919Y3061014D1*
X725877Y3056572D1*
X734577Y3051644D1*
X742993Y3046245D1*
X751099Y3040392D1*
X758871Y3034101D1*
X766286Y3027393D1*
X773320Y3020286D1*
X779952Y3012804D1*
X786163Y3004968D1*
X791934Y2996803D1*
X797246Y2988332D1*
X802085Y2979583D1*
X806436Y2970580D1*
X810284Y2961351D1*
X813619Y2951925D1*
X816431Y2942330D1*
X818710Y2932595D1*
X820451Y2922748D1*
X821648Y2912822D1*
X822296Y2902844D1*
X822355Y2891048D1*
X1575054Y2463948D2*
X1574504Y2453965D1*
X1573406Y2444026D1*
X1571763Y2434163D1*
X1569580Y2424406D1*
X1566863Y2414783D1*
X1563621Y2405325D1*
X1559864Y2396059D1*
X1555603Y2387013D1*
X1550851Y2378216D1*
X1545623Y2369693D1*
X1539933Y2361471D1*
X1533800Y2353574D1*
X1527242Y2346027D1*
X1520279Y2338851D1*
X1512931Y2332070D1*
X1505222Y2325703D1*
X1497174Y2319769D1*
X1488812Y2314287D1*
X1480161Y2309274D1*
X1471247Y2304743D1*
X1462098Y2300710D1*
X1452741Y2297186D1*
X1443204Y2294183D1*
X1433516Y2291708D1*
X1423707Y2289770D1*
X1413806Y2288374D1*
X1403844Y2287525D1*
X1393850Y2287225D1*
X1383854Y2287476D1*
X1373887Y2288275D1*
X1363980Y2289622D1*
X1354161Y2291512D1*
X1344461Y2293938D1*
X1334910Y2296895D1*
X1325535Y2300372D1*
X1316366Y2304360D1*
X1307430Y2308846D1*
X1298755Y2313817D1*
X1290366Y2319258D1*
X1282288Y2325151D1*
X1274548Y2331480D1*
X1267167Y2338225D1*
X1260168Y2345366D1*
X1253572Y2352881D1*
X1247400Y2360747D1*
X1241670Y2368941D1*
X1236399Y2377438D1*
X1231604Y2386212D1*
X1227298Y2395236D1*
X1223495Y2404483D1*
X1220207Y2413926D1*
X1217443Y2423535D1*
X1215212Y2433281D1*
X1213520Y2443136D1*
X1212372Y2453069D1*
X1211773Y2463049D1*
X1211723Y2473048D1*
X1212224Y2483034D1*
X1213273Y2492978D1*
X1214867Y2502849D1*
X1217002Y2512617D1*
X1219671Y2522253D1*
X1222866Y2531727D1*
X1226577Y2541012D1*
X1230793Y2550078D1*
X1235502Y2558899D1*
X1240688Y2567447D1*
X1246337Y2575698D1*
X1252431Y2583625D1*
X1258951Y2591205D1*
X1265879Y2598414D1*
X1273193Y2605232D1*
X1280871Y2611637D1*
X1288889Y2617611D1*
X1297224Y2623134D1*
X1305850Y2628190D1*
X1314741Y2632764D1*
X1323870Y2636843D1*
X1333210Y2640413D1*
X1342732Y2643464D1*
X1352407Y2645986D1*
X1362207Y2647973D1*
X1372100Y2649418D1*
X1382059Y2650316D1*
X1392051Y2650665D1*
X1402048Y2650464D1*
X1412019Y2649714D1*
X1421933Y2648416D1*
X1431761Y2646575D1*
X1441472Y2644197D1*
X1451038Y2641287D1*
X1460430Y2637856D1*
X1469619Y2633914D1*
X1478577Y2629472D1*
X1487277Y2624544D1*
X1495693Y2619145D1*
X1503799Y2613292D1*
X1511571Y2607001D1*
X1518985Y2600293D1*
X1526019Y2593187D1*
X1532652Y2585704D1*
X1538863Y2577869D1*
X1544633Y2569703D1*
X1549946Y2561233D1*
X1554785Y2552483D1*
X1559135Y2543480D1*
X1562983Y2534252D1*
X1566319Y2524825D1*
X1569130Y2515230D1*
X1571410Y2505495D1*
X1573150Y2495649D1*
X1574347Y2485722D1*
X1574996Y2475744D1*
X1575054Y2463948D1*
X994425Y4043761D2*
X1272401Y4043698D1*
X1275563Y4043197D1*
X1278607Y4042208D1*
X1281460Y4040755D1*
X1284049Y4038873D1*
X1286313Y4036610D1*
X1288194Y4034020D1*
X1289648Y4031167D1*
X1290637Y4028123D1*
X1291138Y4024961D1*
Y4021760D1*
X1290637Y4018598D1*
X1289647Y4015554D1*
X1288194Y4012702D1*
X1286312Y4010112D1*
X1267547Y3991258D1*
X1246375Y3970087D1*
X1246316Y3966979D1*
X1245815Y3963818D1*
X1244826Y3960773D1*
X1243373Y3957921D1*
X1241491Y3955331D1*
X1239228Y3953068D1*
X1236638Y3951186D1*
X1233786Y3949733D1*
X1230741Y3948744D1*
X1227579Y3948243D1*
X1224378D1*
X1221216Y3948744D1*
X1218172Y3949733D1*
X1215320Y3951186D1*
X1212730Y3953068D1*
X1210466Y3955331D1*
X1208585Y3957921D1*
X1207131Y3960773D1*
X1206142Y3963818D1*
X1205641Y3966979D1*
X1205579Y3978541D1*
X1205830Y3981732D1*
X1206577Y3984845D1*
X1207802Y3987802D1*
X1209475Y3990532D1*
X1211558Y3992970D1*
X1221539Y4002951D1*
X987824Y4003024D1*
X984663Y4003524D1*
X981618Y4004514D1*
X978766Y4005967D1*
X976176Y4007849D1*
X973913Y4010112D1*
X972031Y4012702D1*
X970578Y4015554D1*
X969588Y4018599D1*
X969088Y4021760D1*
Y4024961D1*
X969588Y4028123D1*
X970578Y4031168D1*
X972031Y4034020D1*
X973913Y4036610D1*
X976176Y4038873D1*
X978766Y4040755D1*
X981618Y4042208D1*
X984663Y4043197D1*
X987824Y4043698D1*
X994425Y4043761D1*
D21*
X1393311Y1044000D3*
X593309D3*
X993309D3*
X593309Y1519000D3*
X1793309D3*
X1393311D3*
X993309D3*
X593315Y1994000D3*
X1793304D3*
D22*
X1693309Y512058D3*
X693309D3*
D21*
X1793309Y1044000D3*
D22*
X693309Y5334892D3*
X1693309D3*
D21*
X1393400Y1993948D3*
X993400D3*
X593400Y2468948D3*
X993400D3*
X640701Y3298748D3*
Y2896047D3*
X1393400Y2468948D3*
X1793400D3*
M02*
