M48
INCH
T01C0.126
T02C0.2362
T03C0.2756
%
T01
X+017425Y+005121G85X+016441Y+005121
X+007425Y+005121G85X+006441Y+005121
X+007425Y+053349G85X+006441Y+053349
X+017425Y+053349G85X+016441Y+053349
T02
X+013933Y+010440
X+017933Y+010440
X+017933Y+015190
X+013933Y+015190
X+009933Y+015190
X+005933Y+015190
X+005933Y+010440
X+009933Y+010440
X+009934Y+019939
X+013934Y+019939
X+017933Y+019940
X+017934Y+024689
X+013934Y+024689
X+009934Y+024689
X+005934Y+024689
X+006407Y+028960
X+006407Y+032987
X+005933Y+019940
T03
X+014934Y+037002
T00
M30
